<svg version="1.1" xmlns="http://www.w3.org/2000/svg" viewBox="0 0 1080 433" width="1080" height="433">
  <!-- svg-source:excalidraw -->
  
  <defs>
    <style class="style-fonts">
      @font-face {
        font-family: "Virgil";
        src: url("https://excalidraw.com/Virgil.woff2");
      }
      @font-face {
        font-family: "Cascadia";
        src: url("https://excalidraw.com/Cascadia.woff2");
      }
    </style>
  </defs>
  <rect x="0" y="0" width="1080" height="433" fill="#ffffff"></rect><g stroke-linecap="round" transform="translate(10 213) rotate(0 275.5 24)"><path d="M12 0 M12 0 C199.76 -2.51, 387.36 -1.03, 539 0 M12 0 C186.71 0.08, 361.35 -0.1, 539 0 M539 0 C547.16 1.41, 549.23 3.36, 551 12 M539 0 C546.72 -1.76, 551.51 5.71, 551 12 M551 12 C549.1 17.91, 551.69 25.48, 551 36 M551 12 C551.85 16.98, 550.54 22.85, 551 36 M551 36 C551.16 45.41, 548.96 49.73, 539 48 M551 36 C550.32 44.82, 549.11 47.6, 539 48 M539 48 C331.5 45.91, 126.06 46.33, 12 48 M539 48 C423.05 47.64, 308.16 47.51, 12 48 M12 48 C2.65 48.54, -1.55 44.48, 0 36 M12 48 C2.51 49.55, -2.19 42.08, 0 36 M0 36 C-1.37 29.31, 1.25 21.84, 0 12 M0 36 C-0.47 29.12, 0.73 20.69, 0 12 M0 12 C-0.12 5.58, 3.74 -0.95, 12 0 M0 12 C0.08 2.79, 2.36 -0.42, 12 0" stroke="#000000" stroke-width="1" fill="none"></path></g><g stroke-linecap="round"><g transform="translate(79 211) rotate(0 -0.38817060280547366 25.33257999253459)"><path d="M0.3 0.04 C0.36 8.6, -0.33 42.96, -0.43 51.65 M-1 -0.98 C-0.98 7.21, -1.12 41.29, -1.07 49.86" stroke="#000000" stroke-width="1" fill="none"></path></g></g><mask></mask><g stroke-linecap="round"><g transform="translate(162.38817060280553 211.66742000746535) rotate(0 0.2590182360820563 24.811948722274963)"><path d="M-0.42 -0.36 C-0.61 8.14, -0.28 42.55, -0.41 51.22 M1.56 -1.6 C1.2 6.5, -0.45 40.68, -1.04 49.22" stroke="#000000" stroke-width="1" fill="none"></path></g></g><mask></mask><g stroke-linecap="round"><g transform="translate(250.38817060280553 211.66742000746535) rotate(0 -0.45191093221268375 24.787228601239605)"><path d="M0.22 -0.16 C0.23 8.06, -0.14 41.18, -0.35 49.91 M-1.12 -1.29 C-1.18 6.98, -0.84 42.24, -0.95 50.87" stroke="#000000" stroke-width="1" fill="none"></path></g></g><mask></mask><g stroke-linecap="round"><g transform="translate(397.38817060280553 211.66742000746535) rotate(0 -0.28097758023835695 25.46110099883748)"><path d="M-1.09 0 C-1.04 8.33, 0.21 42.27, 0.19 50.63 M0.53 -1.05 C0.55 7.4, 0.31 43.3, -0.13 51.97" stroke="#000000" stroke-width="1" fill="none"></path></g></g><mask></mask><g stroke-linecap="round"><g transform="translate(478.38817060280553 208.66742000746535) rotate(0 -0.11987978508977903 25.68873665627092)"><path d="M-0.37 -0.22 C-0.69 8.11, -1.87 42.47, -1.88 51.14 M1.63 -1.38 C1.7 7.67, 0.79 44.21, 0.38 52.75" stroke="#000000" stroke-width="1" fill="none"></path></g></g><mask></mask><g transform="translate(32 214) rotate(0 11.250007629394531 22.5)"><text x="0" y="0" font-family="Virgil, Segoe UI Emoji" font-size="36px" fill="#000000" text-anchor="start" style="white-space: pre;" direction="ltr" dominant-baseline="text-before-edge">+</text></g><g transform="translate(109.74999237060547 214.5) rotate(0 9.288002014160156 22.5)"><text x="0" y="0" font-family="Virgil, Segoe UI Emoji" font-size="36px" fill="#000000" text-anchor="start" style="white-space: pre;" direction="ltr" dominant-baseline="text-before-edge">*</text></g><g transform="translate(186.71199798583984 221.5) rotate(0 17.500076293945312 17.5)"><text x="0" y="0" font-family="Virgil, Segoe UI Emoji" font-size="28px" fill="#000000" text-anchor="start" style="white-space: pre;" direction="ltr" dominant-baseline="text-before-edge">x0</text></g><g transform="translate(348.49999237060547 213.5) rotate(0 7.398002624511719 22.5)"><text x="0" y="0" font-family="Virgil, Segoe UI Emoji" font-size="36px" fill="#000000" text-anchor="start" style="white-space: pre;" direction="ltr" dominant-baseline="text-before-edge">-</text></g><g transform="translate(418.49999237060547 219.5) rotate(0 17.500076293945312 17.5)"><text x="0" y="0" font-family="Virgil, Segoe UI Emoji" font-size="28px" fill="#000000" text-anchor="start" style="white-space: pre;" direction="ltr" dominant-baseline="text-before-edge">x0</text></g><g transform="translate(500.49999237060547 212.5) rotate(0 14.994003295898438 22.5)"><text x="0" y="0" font-family="Virgil, Segoe UI Emoji" font-size="36px" fill="#000000" text-anchor="start" style="white-space: pre;" direction="ltr" dominant-baseline="text-before-edge">x1</text></g><g stroke-linecap="round"><g transform="translate(43 205) rotate(0 40.8513618455641 -24.309434420960173)"><path d="M0.97 0.95 C7.26 -6.87, 24.51 -47.65, 37.96 -47.98 C51.41 -48.31, 74.69 -8.69, 81.68 -1.05 M0.02 0.4 C6.14 -7.64, 23.45 -49.54, 36.99 -49.57 C50.54 -49.59, 74.17 -7.74, 81.27 0.25" stroke="#000000" stroke-width="1" fill="none"></path></g><g transform="translate(43 205) rotate(0 40.8513618455641 -24.309434420960173)"><path d="M58.17 -16.87 C65.96 -10.47, 72.01 -7.99, 79.39 -1.27 M55.99 -16.43 C63.09 -13.68, 66.95 -8.62, 82.19 -0.11" stroke="#000000" stroke-width="1" fill="none"></path></g><g transform="translate(43 205) rotate(0 40.8513618455641 -24.309434420960173)"><path d="M74.91 -28.75 C77.29 -18.44, 78.03 -12.2, 79.39 -1.27 M72.73 -28.31 C76.15 -22.8, 76.29 -15.1, 82.19 -0.11" stroke="#000000" stroke-width="1" fill="none"></path></g></g><mask></mask><g stroke-linecap="round"><g transform="translate(41 207) rotate(0 82.53644222860407 -44.08898275957171)"><path d="M0.68 -0.05 C13.34 -14.9, 48.86 -87.98, 75.92 -88.13 C102.99 -88.28, 148.32 -15.74, 163.08 -0.93 M-0.42 -1.12 C12.6 -15.35, 50.42 -87.36, 78.07 -87.19 C105.72 -87.02, 151.01 -14.39, 165.49 -0.1" stroke="#000000" stroke-width="1" fill="none"></path></g><g transform="translate(41 207) rotate(0 82.53644222860407 -44.08898275957171)"><path d="M139.8 -17.51 C145.73 -12.74, 153.67 -5.76, 166.74 -1.3 M139.18 -14.97 C149.59 -10.67, 157.24 -4.8, 166.29 0.02" stroke="#000000" stroke-width="1" fill="none"></path></g><g transform="translate(41 207) rotate(0 82.53644222860407 -44.08898275957171)"><path d="M155.83 -30.32 C157.11 -21.66, 160.29 -10.88, 166.74 -1.3 M155.21 -27.78 C160.33 -19.24, 162.57 -9.05, 166.29 0.02" stroke="#000000" stroke-width="1" fill="none"></path></g></g><mask></mask><g stroke-linecap="round"><g transform="translate(358 205) rotate(0 39.7166095879017 -24.81357303982412)"><path d="M1.18 -0.48 C8.61 -9.38, 30.75 -54.6, 43.73 -54.01 C56.71 -53.42, 73.23 -6.65, 79.09 3.05 M0.35 -1.78 C7.75 -10.52, 30.16 -54.03, 43.16 -53 C56.17 -51.97, 72.42 -4.82, 78.4 4.39" stroke="#000000" stroke-width="1" fill="none"></path></g><g transform="translate(358 205) rotate(0 39.7166095879017 -24.81357303982412)"><path d="M56.17 -15.39 C60.13 -11.72, 66.84 -7.28, 80.39 3.16 M57.45 -17.08 C64.09 -9.64, 72.85 -2.19, 78.39 3.86" stroke="#000000" stroke-width="1" fill="none"></path></g><g transform="translate(358 205) rotate(0 39.7166095879017 -24.81357303982412)"><path d="M74.68 -24.25 C74.33 -18.35, 76.76 -11.87, 80.39 3.16 M75.96 -25.94 C75.99 -15.48, 78.09 -4.84, 78.39 3.86" stroke="#000000" stroke-width="1" fill="none"></path></g></g><mask></mask><g stroke-linecap="round"><g transform="translate(359 201) rotate(0 76.82193578816953 -37.779760349560604)"><path d="M-0.39 -0.04 C11.74 -13.32, 47.94 -79.48, 73.67 -78.92 C99.41 -78.35, 140.96 -10.24, 154.04 3.36 M1.6 -1.1 C13.56 -14.24, 47.71 -77.72, 73.08 -77.34 C98.45 -76.95, 140.68 -12.28, 153.81 1.21" stroke="#000000" stroke-width="1" fill="none"></path></g><g transform="translate(359 201) rotate(0 76.82193578816953 -37.779760349560604)"><path d="M128.06 -13.16 C137.97 -6.68, 148.04 -4.09, 153.26 2.34 M128.33 -14.63 C138.49 -9.26, 147.25 -3.28, 153.95 1.39" stroke="#000000" stroke-width="1" fill="none"></path></g><g transform="translate(359 201) rotate(0 76.82193578816953 -37.779760349560604)"><path d="M144.03 -26.05 C148.05 -14.8, 152.15 -7.39, 153.26 2.34 M144.3 -27.52 C148.52 -17.49, 151.4 -6.76, 153.95 1.39" stroke="#000000" stroke-width="1" fill="none"></path></g></g><mask></mask><g stroke-linecap="round"><g transform="translate(325.4519109322126 209.21277139876042) rotate(0 -1.1760124661204259 25.493170674713326)"><path d="M0.24 0.34 C-0.06 9.1, -1.05 43.14, -1.39 51.51 M-1.1 -0.53 C-1.62 7.96, -2.83 40.96, -2.55 49.66" stroke="#000000" stroke-width="1" fill="none"></path></g></g><mask></mask><g transform="translate(279.49999237060547 216.5) rotate(0 11.66204833984375 17.5)"><text x="0" y="0" font-family="Virgil, Segoe UI Emoji" font-size="28px" fill="#000000" text-anchor="start" style="white-space: pre;" direction="ltr" dominant-baseline="text-before-edge">x1</text></g><g stroke-linecap="round"><g transform="translate(119 269) rotate(0 82.83839735488482 12.035111941421036)"><path d="M0.09 -0.04 C14.92 5.45, 61.48 34.25, 89.3 32.79 C117.12 31.34, 154.18 -1.79, 167 -8.78 M-1.32 -1.11 C13.35 4.06, 60.56 32.21, 88.51 31.09 C116.46 29.96, 153.42 -1.25, 166.36 -7.87" stroke="#000000" stroke-width="1" fill="none"></path></g><g transform="translate(119 269) rotate(0 82.83839735488482 12.035111941421036)"><path d="M148.16 16.54 C155.51 8.59, 158.83 -0.59, 164.46 -8.64 M147.46 15.81 C155.02 8.03, 159.81 0.47, 167.26 -7.24" stroke="#000000" stroke-width="1" fill="none"></path></g><g transform="translate(119 269) rotate(0 82.83839735488482 12.035111941421036)"><path d="M137.04 -0.71 C148.01 -3.01, 154.97 -6.55, 164.46 -8.64 M136.34 -1.43 C147.62 -3.53, 156.09 -5.38, 167.26 -7.24" stroke="#000000" stroke-width="1" fill="none"></path></g></g><mask></mask><g stroke-linecap="round"><g transform="translate(122 267) rotate(0 115.8970401789993 29.28435714842439)"><path d="M-1.16 1.01 C17.7 11.09, 73.4 59.85, 112.42 59.53 C151.44 59.2, 212.71 8.98, 232.95 -0.96 M0.43 0.5 C19.15 10.29, 72.55 57.7, 111.17 57.68 C149.79 57.66, 211.6 10.36, 232.16 0.38" stroke="#000000" stroke-width="1" fill="none"></path></g><g transform="translate(122 267) rotate(0 115.8970401789993 29.28435714842439)"><path d="M214.97 22.73 C218.85 18.23, 222.56 14.17, 233.68 0.29 M213.57 23.08 C218.81 17.82, 224.19 10.47, 232.35 0.54" stroke="#000000" stroke-width="1" fill="none"></path></g><g transform="translate(122 267) rotate(0 115.8970401789993 29.28435714842439)"><path d="M204.4 5.15 C210.67 4.95, 216.9 5.08, 233.68 0.29 M203 5.49 C210.99 5.04, 219.26 2.49, 232.35 0.54" stroke="#000000" stroke-width="1" fill="none"></path></g></g><mask></mask><g stroke-linecap="round" transform="translate(727 10) rotate(0 34.5 39)"><path d="M43.03 2.19 C49.38 3.71, 56.21 8.95, 60.54 14.64 C64.87 20.34, 68.37 28.64, 69.01 36.36 C69.65 44.08, 68.22 54.4, 64.39 60.95 C60.57 67.5, 52.36 73.2, 46.05 75.66 C39.74 78.13, 32.74 77.6, 26.51 75.74 C20.28 73.88, 13.2 70.39, 8.65 64.51 C4.1 58.64, -0.31 48.35, -0.81 40.49 C-1.3 32.64, 1.89 23.85, 5.68 17.38 C9.48 10.92, 15.23 4.17, 21.96 1.69 C28.69 -0.79, 41.32 2.06, 46.06 2.52 C50.8 2.97, 50.59 3.76, 50.38 4.41 M42.65 2.3 C48.7 3.27, 55.77 8.01, 60.11 13.74 C64.46 19.46, 68.28 29.12, 68.72 36.65 C69.17 44.18, 66.39 52.62, 62.77 58.9 C59.16 65.19, 53.27 71.39, 47.06 74.33 C40.85 77.27, 32.07 78.08, 25.51 76.53 C18.95 74.98, 11.77 70.79, 7.69 65.04 C3.6 59.28, 1.46 49.96, 1.01 41.98 C0.57 34, 1.77 23.46, 5.01 17.13 C8.26 10.81, 13.97 6.49, 20.48 4.05 C26.99 1.62, 40.53 2.9, 44.07 2.54 C47.6 2.17, 41.87 1.67, 41.69 1.87" stroke="#000000" stroke-width="1" fill="none"></path></g><g transform="translate(750.3548084196696 26.42283553372465) rotate(0 11.250007629394531 22.5)"><text x="11.250007629394531" y="0" font-family="Virgil, Segoe UI Emoji" font-size="36px" fill="#000000" text-anchor="middle" style="white-space: pre;" direction="ltr" dominant-baseline="text-before-edge">+</text></g><g stroke-linecap="round" transform="translate(643.5 113) rotate(0 37 35)"><path d="M28.83 1.82 C35.34 -0.06, 43.97 0.07, 50.75 2.57 C57.54 5.07, 65.77 11, 69.53 16.84 C73.29 22.67, 73.96 30.77, 73.33 37.56 C72.69 44.36, 70.43 52.25, 65.71 57.6 C61 62.94, 52.21 68.06, 45.03 69.65 C37.86 71.24, 29.38 69.97, 22.69 67.14 C16 64.32, 8.52 58.59, 4.88 52.71 C1.25 46.83, 0.18 38.68, 0.88 31.86 C1.58 25.04, 4.07 17.15, 9.08 11.79 C14.08 6.43, 26.61 1.42, 30.91 -0.3 C35.22 -2.02, 34.7 0.85, 34.89 1.48 M37.36 0.19 C44.2 -0.54, 53.15 0.9, 58.9 4.85 C64.65 8.8, 69.77 17.23, 71.86 23.87 C73.95 30.5, 73.71 38.13, 71.44 44.65 C69.17 51.18, 64.03 58.68, 58.26 63.02 C52.49 67.37, 43.78 70.4, 36.8 70.71 C29.81 71.01, 21.94 69.06, 16.34 64.85 C10.74 60.63, 5.86 52.19, 3.19 45.4 C0.52 38.62, -1.78 30.63, 0.31 24.15 C2.41 17.67, 9.91 10.31, 15.73 6.52 C21.55 2.72, 31.72 2.42, 35.26 1.36 C38.8 0.29, 37.03 -0.09, 36.97 0.13" stroke="#000000" stroke-width="1" fill="none"></path></g><g transform="translate(662.8369728021523 130.25126265847084) rotate(0 17.500076293945312 17.500000000000014)"><text x="17.500076293945312" y="0" font-family="Virgil, Segoe UI Emoji" font-size="28px" fill="#000000" text-anchor="middle" style="white-space: pre;" direction="ltr" dominant-baseline="text-before-edge">x0</text></g><g stroke-linecap="round" transform="translate(825.5 108) rotate(0 38 39)"><path d="M49.12 1.95 C55.79 4, 63.32 10.82, 67.92 17.17 C72.52 23.52, 76.59 32.47, 76.72 40.05 C76.86 47.63, 73.11 56.63, 68.73 62.65 C64.35 68.66, 57.53 73.91, 50.45 76.14 C43.37 78.37, 33.3 78.54, 26.22 76.05 C19.14 73.55, 12.45 67.26, 8 61.18 C3.55 55.1, -0.51 47.23, -0.48 39.56 C-0.45 31.9, 3.84 21.34, 8.18 15.19 C12.51 9.03, 17.96 4.56, 25.52 2.62 C33.09 0.67, 48.8 3.26, 53.56 3.52 C58.32 3.78, 54.61 3.63, 54.08 4.17 M36.86 -0.27 C43.69 -0.86, 52.32 2.59, 58.26 7.05 C64.21 11.51, 69.59 19.5, 72.53 26.47 C75.48 33.43, 77.68 41.57, 75.92 48.83 C74.16 56.08, 68.03 65.26, 61.98 70 C55.93 74.73, 47.02 76.81, 39.62 77.23 C32.21 77.65, 23.49 76.44, 17.53 72.53 C11.58 68.62, 6.58 61.17, 3.88 53.76 C1.19 46.35, -0.31 35.85, 1.34 28.08 C2.99 20.31, 8.09 11.83, 13.81 7.13 C19.52 2.43, 31.81 0.74, 35.63 -0.14 C39.45 -1.01, 36.49 1.29, 36.74 1.89" stroke="#000000" stroke-width="1" fill="none"></path></g><g transform="translate(854.341940300751 124.42283553372465) rotate(0 9.288002014160156 22.5)"><text x="9.288002014160156" y="0" font-family="Virgil, Segoe UI Emoji" font-size="36px" fill="#000000" text-anchor="middle" style="white-space: pre;" direction="ltr" dominant-baseline="text-before-edge">*</text></g><g stroke-linecap="round" transform="translate(730 229) rotate(0 37 35)"><path d="M26.69 0.94 C33.2 -1.08, 43.45 -0.18, 50.36 2.44 C57.26 5.06, 64.23 11.03, 68.13 16.67 C72.04 22.3, 74.08 29.6, 73.76 36.28 C73.45 42.95, 70.65 51.41, 66.23 56.73 C61.81 62.06, 54.33 66.26, 47.22 68.22 C40.12 70.18, 30.28 70.95, 23.59 68.52 C16.9 66.09, 10.91 59.46, 7.11 53.65 C3.31 47.83, 0.51 40.33, 0.79 33.63 C1.07 26.92, 3.7 18.86, 8.81 13.42 C13.92 7.97, 26.99 3.21, 31.45 0.93 C35.91 -1.34, 35.36 -0.83, 35.55 -0.25 M21.17 3.6 C27.22 0.21, 36.22 -1.9, 43.15 -0.74 C50.09 0.42, 57.77 5.58, 62.79 10.56 C67.81 15.53, 71.97 22.55, 73.25 29.09 C74.53 35.62, 73.85 43.44, 70.47 49.78 C67.09 56.12, 59.68 63.72, 52.98 67.11 C46.28 70.5, 37.47 71.46, 30.28 70.11 C23.08 68.75, 14.93 63.91, 9.81 58.97 C4.7 54.03, 0.63 46.97, -0.43 40.46 C-1.49 33.94, 0.11 25.77, 3.44 19.87 C6.77 13.98, 16.81 7.75, 19.56 5.1 C22.31 2.44, 19.43 3.4, 19.95 3.94" stroke="#000000" stroke-width="1" fill="none"></path></g><g transform="translate(755.1750007562539 246.25126265847086) rotate(0 11.66204833984375 17.5)"><text x="11.66204833984375" y="0" font-family="Virgil, Segoe UI Emoji" font-size="28px" fill="#000000" text-anchor="middle" style="white-space: pre;" direction="ltr" dominant-baseline="text-before-edge">x1</text></g><g stroke-linecap="round" transform="translate(911 222) rotate(0 38 39)"><path d="M43.31 0.9 C50.39 1.45, 58.6 6.19, 64.12 11.66 C69.64 17.14, 75.09 26.15, 76.44 33.76 C77.78 41.37, 75.83 50.66, 72.17 57.32 C68.52 63.98, 61.17 70.49, 54.51 73.73 C47.85 76.96, 39.44 78.11, 32.23 76.73 C25.01 75.35, 16.59 70.81, 11.22 65.45 C5.84 60.09, 1.09 51.94, -0.04 44.58 C-1.17 37.22, 0.85 28.1, 4.42 21.3 C7.99 14.49, 14.19 7.19, 21.38 3.77 C28.58 0.35, 42.81 0.88, 47.56 0.78 C52.32 0.68, 50.35 2.59, 49.92 3.14 M43.95 -0.32 C51.46 0.15, 60.18 6.61, 65.51 11.88 C70.85 17.14, 74.7 23.74, 75.95 31.26 C77.2 38.78, 76.31 50.07, 72.99 57 C69.66 63.93, 62.51 69.43, 56 72.84 C49.48 76.24, 41.28 78.36, 33.89 77.43 C26.5 76.49, 17.08 72.47, 11.65 67.23 C6.23 62, 2.47 53.61, 1.35 46 C0.22 38.39, 1.64 28.3, 4.92 21.58 C8.2 14.86, 14.61 9.31, 21 5.67 C27.38 2.02, 39.42 0.57, 43.23 -0.3 C47.04 -1.18, 44 -0.23, 43.86 0.39" stroke="#000000" stroke-width="1" fill="none"></path></g><g transform="translate(941.7319396903995 238.42283553372465) rotate(0 7.398002624511719 22.5)"><text x="7.398002624511719" y="0" font-family="Virgil, Segoe UI Emoji" font-size="36px" fill="#000000" text-anchor="middle" style="white-space: pre;" direction="ltr" dominant-baseline="text-before-edge">-</text></g><g stroke-linecap="round" transform="translate(835 353) rotate(0 37 35)"><path d="M51.29 3.42 C57.79 5.55, 65.6 11.19, 69.44 16.9 C73.28 22.61, 75.22 30.94, 74.32 37.7 C73.42 44.45, 69.06 52.13, 64.05 57.43 C59.05 62.73, 51.17 67.97, 44.28 69.49 C37.39 71, 29.23 69.15, 22.73 66.5 C16.22 63.86, 8.97 59.24, 5.25 53.59 C1.54 47.95, -0.35 39.6, 0.43 32.62 C1.21 25.65, 5.05 17.03, 9.93 11.74 C14.81 6.45, 21.82 2.01, 29.72 0.89 C37.62 -0.23, 52.08 3.75, 57.35 5.01 C62.63 6.27, 61.74 7.94, 61.37 8.45 M24.89 1.6 C31.3 -1.05, 41.33 0.69, 48.19 2.52 C55.04 4.35, 61.74 7.18, 66.02 12.57 C70.3 17.96, 73.3 27.96, 73.85 34.86 C74.39 41.75, 73.07 48.57, 69.28 53.94 C65.49 59.3, 58.18 64.53, 51.1 67.06 C44.03 69.59, 34.02 70.97, 26.81 69.12 C19.61 67.27, 12.37 61.42, 7.86 55.95 C3.34 50.49, 0.02 42.9, -0.3 36.34 C-0.61 29.78, 1.98 22.07, 5.96 16.6 C9.94 11.13, 20.39 5.58, 23.58 3.52 C26.77 1.45, 25.04 3.89, 25.09 4.21" stroke="#000000" stroke-width="1" fill="none"></path></g><g transform="translate(854.3369728021523 370.25126265847086) rotate(0 17.500076293945312 17.5)"><text x="17.500076293945312" y="0" font-family="Virgil, Segoe UI Emoji" font-size="28px" fill="#000000" text-anchor="middle" style="white-space: pre;" direction="ltr" dominant-baseline="text-before-edge">x0</text></g><g stroke-linecap="round" transform="translate(996 351) rotate(0 37 35)"><path d="M26.45 1.57 C33.15 -0.59, 43.57 -0.86, 50.5 1.64 C57.43 4.14, 64.08 10.57, 68.03 16.56 C71.98 22.55, 74.47 30.87, 74.23 37.57 C73.98 44.27, 71.01 51.57, 66.56 56.77 C62.12 61.98, 54.56 67.04, 47.55 68.81 C40.54 70.57, 31.33 69.91, 24.5 67.35 C17.67 64.79, 10.59 59.19, 6.58 53.47 C2.57 47.75, 0.28 39.72, 0.43 33.03 C0.58 26.35, 1.95 18.75, 7.46 13.36 C12.97 7.98, 28.37 2.71, 33.49 0.74 C38.62 -1.23, 38.12 1.07, 38.23 1.56 M30.05 0.49 C36.86 -1.8, 46.18 -0.8, 52.58 2.01 C58.97 4.81, 64.9 11.45, 68.43 17.31 C71.95 23.17, 74.35 30.43, 73.72 37.18 C73.09 43.92, 69.41 52.29, 64.65 57.77 C59.9 63.24, 52.28 68.25, 45.19 70.05 C38.1 71.85, 28.63 71.17, 22.11 68.57 C15.59 65.97, 9.98 60.55, 6.07 54.45 C2.16 48.36, -1.79 39.24, -1.33 31.98 C-0.87 24.72, 4.04 16.2, 8.81 10.9 C13.59 5.6, 24.2 1.61, 27.33 0.19 C30.46 -1.23, 27.21 1.58, 27.57 2.37" stroke="#000000" stroke-width="1" fill="none"></path></g><g transform="translate(1021.1750007562539 368.25126265847086) rotate(0 11.66204833984375 17.5)"><text x="11.66204833984375" y="0" font-family="Virgil, Segoe UI Emoji" font-size="28px" fill="#000000" text-anchor="middle" style="white-space: pre;" direction="ltr" dominant-baseline="text-before-edge">x1</text></g><g stroke-linecap="round"><g transform="translate(731 72) rotate(0 -16.662916035223702 19.012903811298315)"><path d="M-0.19 0.33 C-5.71 6.65, -26.78 31.11, -32.12 37.37 M-1.75 -0.55 C-7.52 5.98, -27.9 31.96, -33.13 38.57" stroke="#000000" stroke-width="1" fill="none"></path></g><g transform="translate(731 72) rotate(0 -16.662916035223702 19.012903811298315)"><path d="M-24.8 14.79 C-29.47 23.5, -31.56 32.6, -31.85 37.88 M-26.32 14.95 C-28.38 23.41, -32.11 32.87, -33.93 39.09" stroke="#000000" stroke-width="1" fill="none"></path></g><g transform="translate(731 72) rotate(0 -16.662916035223702 19.012903811298315)"><path d="M-11.46 25.31 C-21.15 30, -28.3 35.11, -31.85 37.88 M-12.98 25.48 C-20.27 29.97, -29.17 35.35, -33.93 39.09" stroke="#000000" stroke-width="1" fill="none"></path></g></g><mask></mask><g stroke-linecap="round"><g transform="translate(788.2166554176865 81.91819131027447) rotate(0 18.874070920295594 17.29894001125676)"><path d="M0.32 -0.61 C6.72 5.17, 32.57 28.1, 38.72 33.75 M-0.97 1.68 C5.27 7.74, 31.24 29.78, 37.98 35.21" stroke="#000000" stroke-width="1" fill="none"></path></g><g transform="translate(788.2166554176865 81.91819131027447) rotate(0 18.874070920295594 17.29894001125676)"><path d="M12.89 27.24 C21.5 27.49, 28.64 33.25, 39.75 33.47 M13.7 26.25 C21.09 28.76, 26.27 32.2, 38.85 35.98" stroke="#000000" stroke-width="1" fill="none"></path></g><g transform="translate(788.2166554176865 81.91819131027447) rotate(0 18.874070920295594 17.29894001125676)"><path d="M24.08 13.78 C28.91 18.49, 32.37 28.67, 39.75 33.47 M24.89 12.79 C29.22 18.82, 31.4 25.87, 38.85 35.98" stroke="#000000" stroke-width="1" fill="none"></path></g></g><mask></mask><g stroke-linecap="round"><g transform="translate(834.7912097024159 181.18215842069537) rotate(0 -18.036953192073724 23.83631216962516)"><path d="M-0.93 -0.34 C-6.81 8, -30.52 41.2, -36.46 49.23 M0.79 -1.56 C-5.06 6.5, -30.6 39.07, -36.86 47.45" stroke="#000000" stroke-width="1" fill="none"></path></g><g transform="translate(834.7912097024159 181.18215842069537) rotate(0 -18.036953192073724 23.83631216962516)"><path d="M-28.4 20.56 C-28.77 26.14, -32.92 30.08, -35.37 47.06 M-27.82 18.72 C-30.24 26.88, -32.74 35.15, -36.34 47.69" stroke="#000000" stroke-width="1" fill="none"></path></g><g transform="translate(834.7912097024159 181.18215842069537) rotate(0 -18.036953192073724 23.83631216962516)"><path d="M-12.12 33.05 C-15.7 35.98, -23.15 37.39, -35.37 47.06 M-11.54 31.21 C-18.24 36.08, -25.12 40.98, -36.34 47.69" stroke="#000000" stroke-width="1" fill="none"></path></g></g><mask></mask><g stroke-linecap="round"><g transform="translate(888 186) rotate(0 17.103630303479804 20.118379270099126)"><path d="M0.44 -0.46 C5.84 6.28, 27.32 33.99, 32.87 40.98 M-0.78 -1.75 C4.92 5.06, 29.38 34.6, 34.99 41.99" stroke="#000000" stroke-width="1" fill="none"></path></g><g transform="translate(888 186) rotate(0 17.103630303479804 20.118379270099126)"><path d="M11.15 26.04 C18.2 32.27, 27.02 35.9, 34.12 41.5 M12.14 28.88 C19.96 32.99, 28.7 37.04, 34.6 42.87" stroke="#000000" stroke-width="1" fill="none"></path></g><g transform="translate(888 186) rotate(0 17.103630303479804 20.118379270099126)"><path d="M25.59 14.5 C27.74 24.75, 31.6 32.33, 34.12 41.5 M26.58 17.35 C29.18 25.71, 32.78 33.86, 34.6 42.87" stroke="#000000" stroke-width="1" fill="none"></path></g></g><mask></mask><g stroke-linecap="round"><g transform="translate(926 301) rotate(0 -14.754560298584352 25.49793747635556)"><path d="M-0.74 -0.55 C-5.88 7.93, -25.2 41.57, -30.11 50.01 M1.07 1.77 C-4.21 10.54, -25.32 43.27, -30.58 51.55" stroke="#000000" stroke-width="1" fill="none"></path></g><g transform="translate(926 301) rotate(0 -14.754560298584352 25.49793747635556)"><path d="M-25.07 24.34 C-26.68 34.52, -28.87 44.23, -31.96 52.99 M-23.62 23.3 C-26.32 32.87, -28.15 42.62, -31.33 50.62" stroke="#000000" stroke-width="1" fill="none"></path></g><g transform="translate(926 301) rotate(0 -14.754560298584352 25.49793747635556)"><path d="M-8.13 35.19 C-15.76 41.36, -24.06 47.16, -31.96 52.99 M-6.68 34.15 C-15.13 40.2, -22.7 46.27, -31.33 50.62" stroke="#000000" stroke-width="1" fill="none"></path></g></g><mask></mask><g stroke-linecap="round"><g transform="translate(980 299) rotate(0 15.249645336149229 24.241393169388175)"><path d="M0.03 -1.14 C5.16 6.96, 26.78 41.29, 31.92 49.62 M-1.42 0.88 C3.54 9.15, 26.21 39.63, 31.45 47.82" stroke="#000000" stroke-width="1" fill="none"></path></g><g transform="translate(980 299) rotate(0 15.249645336149229 24.241393169388175)"><path d="M5.86 32.64 C18.25 37.45, 26.25 45.81, 33.32 48.59 M7.59 32.04 C15.49 36.67, 24.84 42.36, 31.75 48.14" stroke="#000000" stroke-width="1" fill="none"></path></g><g transform="translate(980 299) rotate(0 15.249645336149229 24.241393169388175)"><path d="M22.15 21.32 C28.23 30.59, 29.81 43.4, 33.32 48.59 M23.87 20.72 C25.96 29.45, 29.59 39.11, 31.75 48.14" stroke="#000000" stroke-width="1" fill="none"></path></g></g><mask></mask><g transform="translate(89 372) rotate(0 197.58602905273438 22.5)"><text x="0" y="0" font-family="Virgil, Segoe UI Emoji" font-size="36px" fill="#000000" text-anchor="start" style="white-space: pre;" direction="ltr" dominant-baseline="text-before-edge">(x0 + (x1 * (x0 - x1)))</text></g></svg>