<svg version="1.1" xmlns="http://www.w3.org/2000/svg" viewBox="0 0 1676.1728973388672 688.193051727929" width="1676.1728973388672" height="688.193051727929">
  <!-- svg-source:excalidraw -->
  
  <defs>
    <style class="style-fonts">
      @font-face {
        font-family: "Virgil";
        src: url("https://excalidraw.com/Virgil.woff2");
      }
      @font-face {
        font-family: "Cascadia";
        src: url("https://excalidraw.com/Cascadia.woff2");
      }
    </style>
  </defs>
  <rect x="0" y="0" width="1676.1728973388672" height="688.193051727929" fill="#ffffff"></rect><g stroke-linecap="round" transform="translate(89.42963015152145 100.73478143448017) rotate(0 47.5 129.5)"><path d="M23.75 0 M23.75 0 C38.75 1.59, 54.55 0.46, 71.25 0 M23.75 0 C43.38 -0.46, 61.48 -0.98, 71.25 0 M71.25 0 C88.14 -0.78, 93.19 7.24, 95 23.75 M71.25 0 C85.33 -0.9, 95.97 8.63, 95 23.75 M95 23.75 C94.5 85.79, 91.61 149.15, 95 235.25 M95 23.75 C97.32 94.81, 96.05 165.68, 95 235.25 M95 235.25 C93.98 251.86, 88.52 257.77, 71.25 259 M95 235.25 C94.58 249.22, 87.85 260.6, 71.25 259 M71.25 259 C59.68 257.85, 50.92 260.64, 23.75 259 M71.25 259 C52.24 258.23, 32.63 259.76, 23.75 259 M23.75 259 C8.4 260.73, 0.66 252.06, 0 235.25 M23.75 259 C9.42 260.08, 1.59 249.68, 0 235.25 M0 235.25 C1.98 173.88, -0.07 115.6, 0 23.75 M0 235.25 C0.55 185.14, -0.1 132.79, 0 23.75 M0 23.75 C1.88 7.49, 6.39 1.6, 23.75 0 M0 23.75 C-1.18 6.95, 7.76 -2.19, 23.75 0" stroke="#000000" stroke-width="1" fill="none"></path></g><g stroke-linecap="round"><g transform="translate(93.30295550202936 146.6227758106778) rotate(0 44.87370554862548 0.9041065213269803)"><path d="M0.38 -1.01 C15.3 -0.69, 75.88 1.1, 90.63 1.53 M-0.88 1.07 C13.84 1.59, 74.66 2.55, 90.02 2.82" stroke="#000000" stroke-width="1" fill="none"></path></g></g><mask></mask><g stroke-linecap="round"><g transform="translate(93.30295550202936 187.6227758106778) rotate(0 44.780949370302324 -0.42294613961132654)"><path d="M0.63 -0.47 C15.22 -0.37, 73.34 -0.41, 87.92 -0.41 M-0.5 -1.76 C14.42 -1.41, 74.89 0.52, 90.06 0.92" stroke="#000000" stroke-width="1" fill="none"></path></g></g><mask></mask><g stroke-linecap="round"><g transform="translate(92.30295550202936 228.6227758106778) rotate(0 47.11447365907952 -0.4215043870159434)"><path d="M-1.08 -0.41 C14.32 -0.41, 77.15 -0.6, 93.08 -0.47 M0.55 -1.67 C16.27 -1.46, 79.74 0.84, 95.31 0.82" stroke="#000000" stroke-width="1" fill="none"></path></g></g><mask></mask><g transform="translate(101.42963015152145 111.73478143448017) rotate(0 25.92810821533203 17.5)"><text x="0" y="0" font-family="Virgil, Segoe UI Emoji" font-size="28px" fill="#000000" text-anchor="start" style="white-space: pre;" direction="ltr" dominant-baseline="text-before-edge">Ind1</text></g><g transform="translate(98.50152193618942 152.23478143448017) rotate(0 32.102134704589844 17.5)"><text x="0" y="0" font-family="Virgil, Segoe UI Emoji" font-size="28px" fill="#000000" text-anchor="start" style="white-space: pre;" direction="ltr" dominant-baseline="text-before-edge">Ind2</text></g><g transform="translate(100.50152193618942 191.23478143448017) rotate(0 31.668136596679688 17.5)"><text x="0" y="0" font-family="Virgil, Segoe UI Emoji" font-size="28px" fill="#000000" text-anchor="start" style="white-space: pre;" direction="ltr" dominant-baseline="text-before-edge">Ind3</text></g><g transform="translate(99.50152193618942 230.23478143448017) rotate(0 31.094131469726562 17.5)"><text x="0" y="0" font-family="Virgil, Segoe UI Emoji" font-size="28px" fill="#000000" text-anchor="start" style="white-space: pre;" direction="ltr" dominant-baseline="text-before-edge">Ind4</text></g><g stroke-linecap="round"><g transform="translate(90.28053323790436 271.3770559351441) rotate(0 48.01747797710823 -1.3041725888715519)"><path d="M-0.75 -0.19 C14.82 -0.28, 78.29 -0.28, 94.39 -0.54 M1.06 -1.33 C16.94 -1.79, 81.03 -2.5, 96.78 -2.41" stroke="#000000" stroke-width="1" fill="none"></path></g></g><mask></mask><g stroke-linecap="round"><g transform="translate(91.42831560051081 315.93928738107604) rotate(0 46.126358720287726 -0.1382129933684837)"><path d="M-0.61 0.46 C14.99 0.37, 77.46 -0.5, 92.86 -0.74 M1.27 -0.34 C16.86 -0.27, 77.43 0.38, 92.37 0.41" stroke="#000000" stroke-width="1" fill="none"></path></g></g><mask></mask><g transform="translate(98.00635278834034 319.26521856552006) rotate(0 31.150131225585938 17.5)"><text x="0" y="0" font-family="Virgil, Segoe UI Emoji" font-size="28px" fill="#000000" text-anchor="start" style="white-space: pre;" direction="ltr" dominant-baseline="text-before-edge">IndN</text></g><g transform="translate(120.44844568384815 274.26521856552006) rotate(0 11.508041381835938 17.5)"><text x="0" y="0" font-family="Virgil, Segoe UI Emoji" font-size="28px" fill="#000000" text-anchor="start" style="white-space: pre;" direction="ltr" dominant-baseline="text-before-edge">...</text></g><g transform="translate(47.10800684107471 57.26521856551983) rotate(0 95.31239318847656 17.5)"><text x="0" y="0" font-family="Virgil, Segoe UI Emoji" font-size="28px" fill="#000000" text-anchor="start" style="white-space: pre;" direction="ltr" dominant-baseline="text-before-edge">População pai</text></g><g transform="translate(10 378.2652185655194) rotate(0 145.67062377929688 17.5)"><text x="0" y="0" font-family="Virgil, Segoe UI Emoji" font-size="28px" fill="#000000" text-anchor="start" style="white-space: pre;" direction="ltr" dominant-baseline="text-before-edge">Conjunto de exemplos</text></g><g stroke-linecap="round" transform="translate(24.42963015152145 426.9999999999999) rotate(0 110.5 98)"><path d="M32 0 M32 0 C75.4 -0.14, 122.3 -1.5, 189 0 M32 0 C83.4 -0.49, 135.5 -0.82, 189 0 M189 0 C208.74 0.68, 220.72 11.9, 221 32 M189 0 C210.35 0.34, 219.51 10.1, 221 32 M221 32 C220.78 82.02, 221.06 134.32, 221 164 M221 32 C221.82 75.67, 221.43 118.54, 221 164 M221 164 C222.28 183.9, 211.48 195.82, 189 196 M221 164 C223.17 187.45, 211.32 197.84, 189 196 M189 196 C141.77 198.15, 97.59 198.9, 32 196 M189 196 C152.2 196.05, 114.34 194.97, 32 196 M32 196 C10.54 194.02, 1.5 185.19, 0 164 M32 196 C10.44 198.18, 1.58 183.23, 0 164 M0 164 C-0.39 115.33, -1.37 68.12, 0 32 M0 164 C2.13 125.95, 1.7 86.84, 0 32 M0 32 C0.45 12.61, 10.77 0.21, 32 0 M0 32 C0.65 10.54, 9.5 -0.32, 32 0" stroke="#000000" stroke-width="1" fill="none"></path></g><g stroke-linecap="round"><g transform="translate(27.42963015152145 462.9999999999999) rotate(0 108.84501314489165 0.4014398275162421)"><path d="M0.22 0.79 C36.23 1.13, 180.41 1.16, 216.41 1.37 M-1.12 0.16 C35.25 0.18, 182.18 -0.57, 218.81 -0.56" stroke="#000000" stroke-width="1" fill="none"></path></g></g><mask></mask><g stroke-linecap="round"><g transform="translate(106.42963015152145 427.9999999999999) rotate(0 -1.7599477576929985 97.2717884008307)"><path d="M-0.59 0.37 C-1.43 32.74, -4.15 162.59, -4.82 195.03 M1.3 -0.49 C0.82 31.5, -1.37 161.16, -2.53 193.45" stroke="#000000" stroke-width="1" fill="none"></path></g></g><mask></mask><g transform="translate(53.01743685318161 429.4999999999999) rotate(0 12.166046142578125 17.5)"><text x="0" y="0" font-family="Virgil, Segoe UI Emoji" font-size="28px" fill="#000000" text-anchor="start" style="white-space: pre;" direction="ltr" dominant-baseline="text-before-edge">X1</text></g><g stroke-linecap="round"><g transform="translate(28.302955502029363 500.8879943761973) rotate(0 108.94903205919076 0.45079086062503393)"><path d="M-0.35 0.64 C35.75 0.7, 179.85 1.22, 216.04 1.41 M1.66 -0.07 C38.19 0.14, 182.53 -0.48, 218.25 -0.5" stroke="#000000" stroke-width="1" fill="none"></path></g></g><mask></mask><g transform="translate(48.42963015152145 467.9999999999999) rotate(0 19.600082397460938 17.5)"><text x="0" y="0" font-family="Virgil, Segoe UI Emoji" font-size="28px" fill="#000000" text-anchor="start" style="white-space: pre;" direction="ltr" dominant-baseline="text-before-edge">20</text></g><g transform="translate(121.82954775406051 503.4999999999999) rotate(0 19.16608428955078 17.5)"><text x="0" y="0" font-family="Virgil, Segoe UI Emoji" font-size="28px" fill="#000000" text-anchor="start" style="white-space: pre;" direction="ltr" dominant-baseline="text-before-edge">30</text></g><g transform="translate(197.8295477540605 501.4999999999999) rotate(0 13.426055908203125 17.5)"><text x="0" y="0" font-family="Virgil, Segoe UI Emoji" font-size="28px" fill="#000000" text-anchor="start" style="white-space: pre;" direction="ltr" dominant-baseline="text-before-edge">10</text></g><g transform="translate(45.003574243318326 503.4999999999999) rotate(0 18.592079162597656 17.5)"><text x="0" y="0" font-family="Virgil, Segoe UI Emoji" font-size="28px" fill="#000000" text-anchor="start" style="white-space: pre;" direction="ltr" dominant-baseline="text-before-edge">40</text></g><g stroke-linecap="round"><g transform="translate(28.280533237904365 541.642274500664) rotate(0 107.9891650739591 0.19008320065211137)"><path d="M-0.22 0.13 C36.03 0.06, 181.45 0.01, 217.77 0.14 M-1.79 -0.84 C34.35 -0.83, 180.71 0.72, 217.23 1.22" stroke="#000000" stroke-width="1" fill="none"></path></g></g><mask></mask><g stroke-linecap="round"><g transform="translate(22.428315600510814 587.204505946596) rotate(0 108.7026688571554 0.7674795198764741)"><path d="M0.77 -0.86 C37.09 -0.73, 181.46 0.4, 217.69 0.89 M-0.28 1.3 C35.96 1.61, 180.73 2.54, 217.1 2.38" stroke="#000000" stroke-width="1" fill="none"></path></g></g><mask></mask><g transform="translate(131.50840509546924 589.5304371310395) rotate(0 8.65203857421875 17.5)"><text x="0" y="0" font-family="Virgil, Segoe UI Emoji" font-size="28px" fill="#000000" text-anchor="start" style="white-space: pre;" direction="ltr" dominant-baseline="text-before-edge">5</text></g><g transform="translate(50.44844568384815 545.5304371310395) rotate(0 11.508041381835938 17.5)"><text x="0" y="0" font-family="Virgil, Segoe UI Emoji" font-size="28px" fill="#000000" text-anchor="start" style="white-space: pre;" direction="ltr" dominant-baseline="text-before-edge">...</text></g><g transform="translate(128.59244287623096 543.5304371310395) rotate(0 11.508041381835938 17.5)"><text x="0" y="0" font-family="Virgil, Segoe UI Emoji" font-size="28px" fill="#000000" text-anchor="start" style="white-space: pre;" direction="ltr" dominant-baseline="text-before-edge">...</text></g><g stroke-linecap="round"><g transform="translate(179.07234094616956 429.2282115991694) rotate(0 -0.16189947423526974 96.53311064215382)"><path d="M1.07 -0.51 C0.78 31.82, -0.4 161.31, -0.98 193.92 M0.18 -1.83 C-0.26 30.61, -0.8 161.83, -1.4 194.89" stroke="#000000" stroke-width="1" fill="none"></path></g></g><mask></mask><g transform="translate(126.14634704589844 429.9999999999999) rotate(0 18.340072631835938 17.5)"><text x="0" y="0" font-family="Virgil, Segoe UI Emoji" font-size="28px" fill="#000000" text-anchor="start" style="white-space: pre;" direction="ltr" dominant-baseline="text-before-edge">X2</text></g><g transform="translate(199.97232055664062 429.9999999999999) rotate(0 7.224029541015625 17.5)"><text x="0" y="0" font-family="Virgil, Segoe UI Emoji" font-size="28px" fill="#000000" text-anchor="start" style="white-space: pre;" direction="ltr" dominant-baseline="text-before-edge">Y</text></g><g transform="translate(193.80435180664062 548.9999999999997) rotate(0 11.508041381835938 17.5)"><text x="0" y="0" font-family="Virgil, Segoe UI Emoji" font-size="28px" fill="#000000" text-anchor="start" style="white-space: pre;" direction="ltr" dominant-baseline="text-before-edge">...</text></g><g transform="translate(49.88633728027344 588.9999999999999) rotate(0 13.426055908203125 17.5)"><text x="0" y="0" font-family="Virgil, Segoe UI Emoji" font-size="28px" fill="#000000" text-anchor="start" style="white-space: pre;" direction="ltr" dominant-baseline="text-before-edge">10</text></g><g transform="translate(185.7203140258789 589.9999999999999) rotate(0 18.592079162597656 17.5)"><text x="0" y="0" font-family="Virgil, Segoe UI Emoji" font-size="28px" fill="#000000" text-anchor="start" style="white-space: pre;" direction="ltr" dominant-baseline="text-before-edge">40</text></g><g transform="translate(190.14630889892578 466.9999999999999) rotate(0 19.16608428955078 17.5)"><text x="0" y="0" font-family="Virgil, Segoe UI Emoji" font-size="28px" fill="#000000" text-anchor="start" style="white-space: pre;" direction="ltr" dominant-baseline="text-before-edge">30</text></g><g transform="translate(132.6603546142578 467.99999999999966) rotate(0 8.65203857421875 17.5)"><text x="0" y="0" font-family="Virgil, Segoe UI Emoji" font-size="28px" fill="#000000" text-anchor="start" style="white-space: pre;" direction="ltr" dominant-baseline="text-before-edge">5</text></g><g stroke-linecap="round" transform="translate(669.4296301515215 208.9999999999999) rotate(0 110.5 143.5)"><path d="M32 0 M32 0 C67.01 -0.24, 99.72 0.94, 189 0 M32 0 C66.39 -0.2, 99.83 0.32, 189 0 M189 0 C209.42 0.57, 219.23 10.39, 221 32 M189 0 C211.95 0.06, 222.04 11.73, 221 32 M221 32 C221.47 97.86, 220.08 162.15, 221 255 M221 32 C221.15 112.58, 221.15 193.95, 221 255 M221 255 C219.33 278.22, 209.18 286.6, 189 287 M221 255 C218.72 275.84, 209.74 284.78, 189 287 M189 287 C128.42 288.33, 67.71 287.14, 32 287 M189 287 C142.79 288.2, 94.65 288.19, 32 287 M32 287 C11.16 285.49, -1.56 278, 0 255 M32 287 C12.22 287.65, 1.79 276.38, 0 255 M0 255 C0.8 187.73, 0.22 116.6, 0 32 M0 255 C-0.13 172.14, -0.6 90.19, 0 32 M0 32 C-1.45 10.53, 11.62 0.45, 32 0 M0 32 C-1.43 12, 11.04 1.31, 32 0" stroke="#000000" stroke-width="1" fill="none"></path></g><g stroke-linecap="round"><g transform="translate(672.4296301515215 244.9999999999999) rotate(0 108.55256684757774 -0.08681995236520379)"><path d="M-0.3 -0.07 C35.97 -0.18, 181.36 -0.29, 217.41 -0.02 M1.74 -1.15 C37.9 -1.21, 180.58 0.88, 216.67 0.98" stroke="#000000" stroke-width="1" fill="none"></path></g></g><mask></mask><g stroke-linecap="round"><g transform="translate(751.4296301515215 209.9999999999999) rotate(0 -1.3125655915588368 138.74632986448705)"><path d="M0.41 -1.02 C-0.05 45.41, -2.77 231.92, -3.03 278.52 M-0.84 1.05 C-0.9 47.13, -0.75 230.75, -0.86 276.66" stroke="#000000" stroke-width="1" fill="none"></path></g></g><mask></mask><g transform="translate(765.4296301515215 210.9999999999999) rotate(0 48.412193298339844 17.5)"><text x="0" y="0" font-family="Virgil, Segoe UI Emoji" font-size="28px" fill="#000000" text-anchor="start" style="white-space: pre;" direction="ltr" dominant-baseline="text-before-edge">Fitness</text></g><g transform="translate(681.0174368531816 212.4999999999999) rotate(0 32.522132873535156 17.5)"><text x="0" y="0" font-family="Virgil, Segoe UI Emoji" font-size="28px" fill="#000000" text-anchor="start" style="white-space: pre;" direction="ltr" dominant-baseline="text-before-edge">Indiv</text></g><g stroke-linecap="round"><g transform="translate(673.3029555020294 282.8879943761973) rotate(0 107.85664824071341 0.3687027867398456)"><path d="M0.47 1.19 C36.41 1.32, 180.54 1.4, 216.45 1.34 M-0.74 0.77 C34.92 0.47, 178.72 -0.82, 215.22 -0.6" stroke="#000000" stroke-width="1" fill="none"></path></g></g><mask></mask><g stroke-linecap="round"><g transform="translate(673.3029555020294 323.8879943761973) rotate(0 108.77129338759005 0.8801498419232985)"><path d="M-0.55 0.34 C35.37 0.28, 179.54 0.72, 215.94 0.83 M1.37 -0.52 C37.6 0.11, 182.06 1.8, 218.09 2.28" stroke="#000000" stroke-width="1" fill="none"></path></g></g><mask></mask><g stroke-linecap="round"><g transform="translate(672.3029555020294 364.8879943761973) rotate(0 108.38845334984364 0.6416773626394843)"><path d="M-1.06 -0.17 C35.33 -0.05, 181.41 0.74, 217.84 1.03 M0.58 -1.3 C36.94 -1.01, 181.25 2.45, 217.34 2.58" stroke="#000000" stroke-width="1" fill="none"></path></g></g><mask></mask><g transform="translate(681.4296301515215 247.9999999999999) rotate(0 25.92810821533203 17.5)"><text x="0" y="0" font-family="Virgil, Segoe UI Emoji" font-size="28px" fill="#000000" text-anchor="start" style="white-space: pre;" direction="ltr" dominant-baseline="text-before-edge">Ind1</text></g><g transform="translate(678.5015219361894 288.4999999999999) rotate(0 32.102134704589844 17.5)"><text x="0" y="0" font-family="Virgil, Segoe UI Emoji" font-size="28px" fill="#000000" text-anchor="start" style="white-space: pre;" direction="ltr" dominant-baseline="text-before-edge">Ind2</text></g><g transform="translate(680.5015219361894 327.4999999999999) rotate(0 31.668136596679688 17.5)"><text x="0" y="0" font-family="Virgil, Segoe UI Emoji" font-size="28px" fill="#000000" text-anchor="start" style="white-space: pre;" direction="ltr" dominant-baseline="text-before-edge">Ind3</text></g><g transform="translate(679.5015219361894 366.4999999999999) rotate(0 31.094131469726562 17.5)"><text x="0" y="0" font-family="Virgil, Segoe UI Emoji" font-size="28px" fill="#000000" text-anchor="start" style="white-space: pre;" direction="ltr" dominant-baseline="text-before-edge">Ind4</text></g><g transform="translate(799.4296301515215 248.9999999999999) rotate(0 19.600082397460938 17.5)"><text x="0" y="0" font-family="Virgil, Segoe UI Emoji" font-size="28px" fill="#000000" text-anchor="start" style="white-space: pre;" direction="ltr" dominant-baseline="text-before-edge">20</text></g><g transform="translate(795.8295477540605 287.4999999999999) rotate(0 19.16608428955078 17.5)"><text x="0" y="0" font-family="Virgil, Segoe UI Emoji" font-size="28px" fill="#000000" text-anchor="start" style="white-space: pre;" direction="ltr" dominant-baseline="text-before-edge">30</text></g><g transform="translate(804.8295477540605 329.4999999999999) rotate(0 13.426055908203125 17.5)"><text x="0" y="0" font-family="Virgil, Segoe UI Emoji" font-size="28px" fill="#000000" text-anchor="start" style="white-space: pre;" direction="ltr" dominant-baseline="text-before-edge">10</text></g><g transform="translate(795.0035742433183 369.4999999999999) rotate(0 18.592079162597656 17.5)"><text x="0" y="0" font-family="Virgil, Segoe UI Emoji" font-size="28px" fill="#000000" text-anchor="start" style="white-space: pre;" direction="ltr" dominant-baseline="text-before-edge">40</text></g><g stroke-linecap="round"><g transform="translate(670.2805332379044 407.6422745006638) rotate(0 108.267116685789 1.3400939999190769)"><path d="M-0.12 1.18 C35.9 1.53, 179.92 2.2, 216 2.13 M-1.65 0.76 C34.75 0.8, 182.04 0.4, 218.18 0.6" stroke="#000000" stroke-width="1" fill="none"></path></g></g><mask></mask><g stroke-linecap="round"><g transform="translate(671.4283156005108 452.204505946596) rotate(0 108.82838249477561 1.425321224052368)"><path d="M-1 1.13 C35.07 1.06, 180.17 0.83, 216.31 0.76 M0.67 0.68 C37.14 1.3, 182.43 1.96, 218.66 2.17" stroke="#000000" stroke-width="1" fill="none"></path></g></g><mask></mask><g transform="translate(678.0063527883403 455.5304371310398) rotate(0 31.150131225585938 17.5)"><text x="0" y="0" font-family="Virgil, Segoe UI Emoji" font-size="28px" fill="#000000" text-anchor="start" style="white-space: pre;" direction="ltr" dominant-baseline="text-before-edge">IndN</text></g><g transform="translate(803.5084050954692 455.5304371310398) rotate(0 8.65203857421875 17.5)"><text x="0" y="0" font-family="Virgil, Segoe UI Emoji" font-size="28px" fill="#000000" text-anchor="start" style="white-space: pre;" direction="ltr" dominant-baseline="text-before-edge">5</text></g><g transform="translate(700.4484456838481 410.5304371310398) rotate(0 11.508041381835938 17.5)"><text x="0" y="0" font-family="Virgil, Segoe UI Emoji" font-size="28px" fill="#000000" text-anchor="start" style="white-space: pre;" direction="ltr" dominant-baseline="text-before-edge">...</text></g><g transform="translate(804.592442876231 411.5304371310398) rotate(0 11.508041381835938 17.5)"><text x="0" y="0" font-family="Virgil, Segoe UI Emoji" font-size="28px" fill="#000000" text-anchor="start" style="white-space: pre;" direction="ltr" dominant-baseline="text-before-edge">...</text></g><g stroke-linecap="round" transform="translate(666.3917740670777 113.49999999999989) rotate(0 110.5 40)"><path d="M20 0 M20 0 C79.21 -2.59, 142.88 -2.64, 201 0 M20 0 C69.62 1, 121.65 0.63, 201 0 M201 0 C215.51 1.82, 219.44 8.62, 221 20 M201 0 C215.17 2.13, 223.11 5.28, 221 20 M221 20 C219.35 27.65, 221.78 36.76, 221 60 M221 20 C221.34 32.31, 220.9 44.9, 221 60 M221 60 C221.1 71.92, 215.43 80.68, 201 80 M221 60 C220.01 74.09, 216.59 79.03, 201 80 M201 80 C129.41 80.18, 59.85 78.74, 20 80 M201 80 C152.53 81.82, 103.7 81.52, 20 80 M20 80 C7.31 79.84, -0.05 71.72, 0 60 M20 80 C4.64 77.87, 0.54 74.22, 0 60 M0 60 C-0.87 48.07, 0.18 35.81, 0 20 M0 60 C-0.31 49.87, -0.8 40.27, 0 20 M0 20 C-1.83 8.01, 6.12 -1.18, 20 0 M0 20 C2.25 5.06, 8.08 -1.1, 20 0" stroke="#000000" stroke-width="1" fill="none"></path></g><g stroke-linecap="round"><g transform="translate(669.3917740670777 150.4999999999999) rotate(0 109.12438498365691 0.8337612426466876)"><path d="M-0.56 0.38 C35.32 0.69, 180.34 0.69, 216.41 0.74 M1.34 -0.47 C37.53 0.13, 182.67 1.76, 218.81 2.14" stroke="#000000" stroke-width="1" fill="none"></path></g></g><mask></mask><g stroke-linecap="round"><g transform="translate(748.3917740670777 115.49999999999989) rotate(0 -0.40430527925627757 37.79462506325922)"><path d="M-0.59 -0.26 C-0.85 12.29, -1.91 62.86, -2.12 75.67 M1.3 -1.45 C1.44 11.25, 0.13 64.36, 0 77.03" stroke="#000000" stroke-width="1" fill="none"></path></g></g><mask></mask><g transform="translate(694.9795807687378 116.99999999999989) rotate(0 12.166046142578125 17.5)"><text x="0" y="0" font-family="Virgil, Segoe UI Emoji" font-size="28px" fill="#000000" text-anchor="start" style="white-space: pre;" direction="ltr" dominant-baseline="text-before-edge">X1</text></g><g transform="translate(690.3917740670777 155.4999999999999) rotate(0 12.446052551269531 17.5)"><text x="0" y="0" font-family="Virgil, Segoe UI Emoji" font-size="28px" fill="#000000" text-anchor="start" style="white-space: pre;" direction="ltr" dominant-baseline="text-before-edge">15</text></g><g stroke-linecap="round"><g transform="translate(821.034484861726 116.72821159916919) rotate(0 0.030876586167210007 38.65067017467686)"><path d="M1 -0.23 C0.97 12.61, 0.26 64.14, 0.01 77.1 M0.06 -1.4 C-0.13 11.65, -0.67 65.88, -0.94 78.7" stroke="#000000" stroke-width="1" fill="none"></path></g></g><mask></mask><g transform="translate(768.1084909614547 117.49999999999989) rotate(0 18.340072631835938 17.5)"><text x="0" y="0" font-family="Virgil, Segoe UI Emoji" font-size="28px" fill="#000000" text-anchor="start" style="white-space: pre;" direction="ltr" dominant-baseline="text-before-edge">X2</text></g><g transform="translate(841.9344644721969 117.49999999999989) rotate(0 7.224029541015625 17.5)"><text x="0" y="0" font-family="Virgil, Segoe UI Emoji" font-size="28px" fill="#000000" text-anchor="start" style="white-space: pre;" direction="ltr" dominant-baseline="text-before-edge">Y</text></g><g transform="translate(832.108452814482 154.4999999999999) rotate(0 17.612075805664062 17.5)"><text x="0" y="0" font-family="Virgil, Segoe UI Emoji" font-size="28px" fill="#000000" text-anchor="start" style="white-space: pre;" direction="ltr" dominant-baseline="text-before-edge">65</text></g><g transform="translate(766.622498529814 154.4999999999999) rotate(0 19.50208282470703 17.5)"><text x="0" y="0" font-family="Virgil, Segoe UI Emoji" font-size="28px" fill="#000000" text-anchor="start" style="white-space: pre;" direction="ltr" dominant-baseline="text-before-edge">23</text></g><g transform="translate(245.0925750732422 268.4999999999999) rotate(0 175.21981811523438 37.5)"><text x="175.21981811523438" y="0" font-family="Virgil, Segoe UI Emoji" font-size="20px" fill="#000000" text-anchor="middle" style="white-space: pre;" direction="ltr" dominant-baseline="text-before-edge">Seleciona um dos casos de exemplo,</text><text x="175.21981811523438" y="25" font-family="Virgil, Segoe UI Emoji" font-size="20px" fill="#000000" text-anchor="middle" style="white-space: pre;" direction="ltr" dominant-baseline="text-before-edge">e avalia a fitness do conjunto</text><text x="175.21981811523438" y="50" font-family="Virgil, Segoe UI Emoji" font-size="20px" fill="#000000" text-anchor="middle" style="white-space: pre;" direction="ltr" dominant-baseline="text-before-edge">de indivíduos para esse caso</text></g><g stroke-linecap="round"><g transform="translate(197.31239318847656 220.4999999999999) rotate(0 216.74508585738954 14.149657329544425)"><path d="M-0.18 -1.02 C72.47 3.97, 362.65 24.22, 435.22 29.32 M-1.73 1.06 C70.83 5.72, 361.67 22.95, 434.38 27.36" stroke="#000000" stroke-width="1" fill="none"></path></g><g transform="translate(197.31239318847656 220.4999999999999) rotate(0 216.74508585738954 14.149657329544425)"><path d="M403.93 36.28 C413.28 34.19, 420.77 32.16, 435.66 27.84 M406.02 35.12 C416.17 33.21, 426.88 29.2, 434.9 26.5" stroke="#000000" stroke-width="1" fill="none"></path></g><g transform="translate(197.31239318847656 220.4999999999999) rotate(0 216.74508585738954 14.149657329544425)"><path d="M405.16 15.79 C414.1 18.75, 421.29 21.76, 435.66 27.84 M407.24 14.64 C416.9 19.93, 427.18 23.13, 434.9 26.5" stroke="#000000" stroke-width="1" fill="none"></path></g></g><mask></mask><g stroke-linecap="round"><g transform="translate(266.31239318847656 511.4999999999999) rotate(0 179.7042617872171 -83.14682882938541)"><path d="M0.12 -0.86 C60.17 -28.38, 300.71 -138.29, 360.68 -166 M-1.27 1.3 C58.64 -26.46, 300.01 -139.74, 360.09 -167.59" stroke="#000000" stroke-width="1" fill="none"></path></g><g transform="translate(266.31239318847656 511.4999999999999) rotate(0 179.7042617872171 -83.14682882938541)"><path d="M337.45 -145.23 C347.78 -153.49, 353.04 -161.37, 359.97 -167.27 M338.86 -147.09 C346.34 -153.37, 354.62 -161.15, 359.41 -168.08" stroke="#000000" stroke-width="1" fill="none"></path></g><g transform="translate(266.31239318847656 511.4999999999999) rotate(0 179.7042617872171 -83.14682882938541)"><path d="M328.77 -163.83 C341.85 -165.91, 350 -167.59, 359.97 -167.27 M330.18 -165.69 C340.62 -165.45, 351.92 -166.78, 359.41 -168.08" stroke="#000000" stroke-width="1" fill="none"></path></g></g><mask></mask><g stroke-linecap="round" transform="translate(1086.7296236920822 271.0113984929395) rotate(0 110.49999999999989 37)"><path d="M18.5 0 M18.5 0 C84.13 -0.12, 149.82 1.37, 202.5 0 M18.5 0 C58.07 1.52, 97.69 1.61, 202.5 0 M202.5 0 C214.74 0.18, 221.76 5.14, 221 18.5 M202.5 0 C213.31 0.12, 220.37 7.99, 221 18.5 M221 18.5 C221.39 32.03, 222.54 44.97, 221 55.5 M221 18.5 C221.06 30.31, 221.61 42.3, 221 55.5 M221 55.5 C220.29 66.86, 214.09 73.61, 202.5 74 M221 55.5 C221.87 68.07, 216.92 73.79, 202.5 74 M202.5 74 C134.47 73.03, 64.74 73.78, 18.5 74 M202.5 74 C129.46 73.93, 57.18 73.7, 18.5 74 M18.5 74 C7.52 72.38, 0.88 67.8, 0 55.5 M18.5 74 C7.58 74.96, -1.91 65.88, 0 55.5 M0 55.5 C0.39 43.24, 0.93 31.7, 0 18.5 M0 55.5 C-1 44.73, -0.72 34.26, 0 18.5 M0 18.5 C0.66 7.58, 4.21 -1.14, 18.5 0 M0 18.5 C-1.22 7.15, 7.16 -1.89, 18.5 0" stroke="#000000" stroke-width="1" fill="none"></path></g><g stroke-linecap="round"><g transform="translate(1089.7296236920822 307.0113984929395) rotate(0 108.43867114447073 0.49481473900380024)"><path d="M-0.51 1.02 C35.8 0.94, 181.03 0.16, 217.39 -0.03 M1.43 0.52 C37.65 0.5, 180.68 0.95, 216.64 0.96" stroke="#000000" stroke-width="1" fill="none"></path></g></g><mask></mask><g stroke-linecap="round"><g transform="translate(1168.7296236920824 272.0113984929395) rotate(0 -0.12451918265742279 35.36851739527651)"><path d="M0.39 -1.03 C0.57 10.6, 0.64 58.72, 0.62 70.84 M-0.87 1.04 C-0.74 13.3, -0.09 59.8, 0 71.77" stroke="#000000" stroke-width="1" fill="none"></path></g></g><mask></mask><g transform="translate(1182.7296236920824 273.0113984929395) rotate(0 48.412193298339844 17.5)"><text x="0" y="0" font-family="Virgil, Segoe UI Emoji" font-size="28px" fill="#000000" text-anchor="start" style="white-space: pre;" direction="ltr" dominant-baseline="text-before-edge">Fitness</text></g><g transform="translate(1098.3174303937426 274.5113984929395) rotate(0 32.522132873535156 17.5)"><text x="0" y="0" font-family="Virgil, Segoe UI Emoji" font-size="28px" fill="#000000" text-anchor="start" style="white-space: pre;" direction="ltr" dominant-baseline="text-before-edge">Indiv</text></g><g transform="translate(1096.3063463289013 309.5418356239794) rotate(0 31.150131225585938 17.5)"><text x="0" y="0" font-family="Virgil, Segoe UI Emoji" font-size="28px" fill="#000000" text-anchor="start" style="white-space: pre;" direction="ltr" dominant-baseline="text-before-edge">IndN</text></g><g transform="translate(1221.8083986360302 309.5418356239794) rotate(0 8.65203857421875 17.5)"><text x="0" y="0" font-family="Virgil, Segoe UI Emoji" font-size="28px" fill="#000000" text-anchor="start" style="white-space: pre;" direction="ltr" dominant-baseline="text-before-edge">5</text></g><g stroke-linecap="round" transform="translate(1498.3216233104467 186.73478143447994) rotate(0 47.5 129.5)"><path d="M23.75 0 M23.75 0 C40.89 1.87, 57.39 1.5, 71.25 0 M23.75 0 C36.52 0.72, 47.59 -1.12, 71.25 0 M71.25 0 C86.24 0.04, 93.61 7.75, 95 23.75 M71.25 0 C85.71 0.84, 94.9 8.12, 95 23.75 M95 23.75 C94.79 93.02, 94.64 161.02, 95 235.25 M95 23.75 C96.34 93.9, 97.17 165.4, 95 235.25 M95 235.25 C96.77 252.88, 87.11 257.91, 71.25 259 M95 235.25 C93.1 248.93, 88.76 258.6, 71.25 259 M71.25 259 C62.4 260.18, 49.79 258.61, 23.75 259 M71.25 259 C57.67 258.11, 45.75 259.63, 23.75 259 M23.75 259 C5.99 260.02, -1.67 250.49, 0 235.25 M23.75 259 C8.76 258.14, 2.17 252.39, 0 235.25 M0 235.25 C-2.7 186.65, -2.09 136.44, 0 23.75 M0 235.25 C2.31 161.55, 0.85 86.32, 0 23.75 M0 23.75 C-1.85 7.38, 6.19 -0.56, 23.75 0 M0 23.75 C-0.19 6.89, 8.65 -1, 23.75 0" stroke="#000000" stroke-width="1" fill="none"></path></g><g stroke-linecap="round"><g transform="translate(1502.1949486609547 232.62277581067758) rotate(0 45.52197720277127 1.028194878116551)"><path d="M1.08 -0.72 C16.25 -0.44, 76.22 0.96, 90.86 1.48 M0.19 1.52 C15.29 1.97, 75.19 2.95, 90.36 2.74" stroke="#000000" stroke-width="1" fill="none"></path></g></g><mask></mask><g stroke-linecap="round"><g transform="translate(1502.1949486609547 273.6227758106776) rotate(0 44.94181782959026 0.16845215292642024)"><path d="M0.86 -0.52 C15.33 -0.33, 73.09 0.15, 87.9 0.42 M-0.15 1.82 C14.58 1.7, 75.13 -1.06, 90.04 -1.48" stroke="#000000" stroke-width="1" fill="none"></path></g></g><mask></mask><g stroke-linecap="round"><g transform="translate(1501.1949486609547 314.6227758106776) rotate(0 46.79721035696571 0.31208501631442687)"><path d="M-1.1 0.42 C14.54 0.68, 78.95 1.32, 94.69 1.06 M0.52 -0.41 C15.99 -0.41, 78.82 -0.5, 94.11 -0.5" stroke="#000000" stroke-width="1" fill="none"></path></g></g><mask></mask><g stroke-linecap="round"><g transform="translate(1499.1725263968297 357.37705593514386) rotate(0 47.11669472195217 -0.0973267960745261)"><path d="M-0.72 0.44 C15.25 0.3, 78.94 -0.56, 94.95 -0.89 M1.11 -0.38 C16.98 -0.29, 78.37 0.73, 93.98 0.7" stroke="#000000" stroke-width="1" fill="none"></path></g></g><mask></mask><g stroke-linecap="round"><g transform="translate(1500.320308759436 401.9392873810758) rotate(0 45.39819748985565 -0.10822906616908767)"><path d="M-0.05 0.11 C15.46 -0.06, 77.03 -0.63, 92.33 -0.57 M-1.54 -0.88 C13.91 -0.94, 76.16 0.79, 91.56 0.66" stroke="#000000" stroke-width="1" fill="none"></path></g></g><mask></mask><g transform="translate(1513.8983459472656 197.26521856551983) rotate(0 31.150131225585938 17.5)"><text x="0" y="0" font-family="Virgil, Segoe UI Emoji" font-size="28px" fill="#000000" text-anchor="start" style="white-space: pre;" direction="ltr" dominant-baseline="text-before-edge">IndN</text></g><g transform="translate(1452 142.26521856551938) rotate(0 107.0864486694336 17.5)"><text x="0" y="0" font-family="Virgil, Segoe UI Emoji" font-size="28px" fill="#000000" text-anchor="start" style="white-space: pre;" direction="ltr" dominant-baseline="text-before-edge">Nova população</text></g><g transform="translate(1533.8043518066406 359.9999999999999) rotate(0 11.508041381835938 17.5)"><text x="0" y="0" font-family="Virgil, Segoe UI Emoji" font-size="28px" fill="#000000" text-anchor="start" style="white-space: pre;" direction="ltr" dominant-baseline="text-before-edge">...</text></g><g stroke-linecap="round"><g transform="translate(897.3123931884766 306.4999999999999) rotate(0 88.88726374539544 1.5093934677511243)"><path d="M-0.72 1.19 C28.77 1.64, 146.66 2.38, 176.2 2.51 M1.11 0.76 C31.03 0.87, 149.43 0.24, 178.49 0.65" stroke="#000000" stroke-width="1" fill="none"></path></g><g transform="translate(897.3123931884766 306.4999999999999) rotate(0 88.88726374539544 1.5093934677511243)"><path d="M152.25 9.49 C157.96 7.68, 163.83 7.57, 179.53 -0.09 M151.13 10.24 C161.99 6.27, 172.4 3.33, 178.68 0.64" stroke="#000000" stroke-width="1" fill="none"></path></g><g transform="translate(897.3123931884766 306.4999999999999) rotate(0 88.88726374539544 1.5093934677511243)"><path d="M152.31 -11.03 C157.98 -7.87, 163.83 -3.02, 179.53 -0.09 M151.19 -10.28 C162.04 -6.24, 172.42 -1.17, 178.68 0.64" stroke="#000000" stroke-width="1" fill="none"></path></g></g><mask></mask><g stroke-linecap="round"><g transform="translate(1319.3123931884766 305.4999999999999) rotate(0 83.54005277125157 0.9116671523079276)"><path d="M-1.08 0.56 C26.48 0.56, 138.1 0.64, 165.98 0.66 M0.55 -0.19 C28.42 -0.07, 140.13 1.68, 168.16 2.01" stroke="#000000" stroke-width="1" fill="none"></path></g><g transform="translate(1319.3123931884766 305.4999999999999) rotate(0 83.54005277125157 0.9116671523079276)"><path d="M140.76 10.19 C149.19 7.39, 159.22 4.48, 166.31 1.51 M139.85 11.07 C149.3 8.74, 158.72 5.69, 169.02 1.05" stroke="#000000" stroke-width="1" fill="none"></path></g><g transform="translate(1319.3123931884766 305.4999999999999) rotate(0 83.54005277125157 0.9116671523079276)"><path d="M141.05 -10.33 C149.49 -5.9, 159.41 -1.58, 166.31 1.51 M140.14 -9.45 C149.65 -4.97, 158.98 -1.22, 169.02 1.05" stroke="#000000" stroke-width="1" fill="none"></path></g></g><mask></mask><g transform="translate(896.2225494384766 362.4999999999999) rotate(0 134.08984375 37.5)"><text x="134.08984375" y="0" font-family="Virgil, Segoe UI Emoji" font-size="20px" fill="#000000" text-anchor="middle" style="white-space: pre;" direction="ltr" dominant-baseline="text-before-edge">Remove todos os indivíduos</text><text x="134.08984375" y="25" font-family="Virgil, Segoe UI Emoji" font-size="20px" fill="#000000" text-anchor="middle" style="white-space: pre;" direction="ltr" dominant-baseline="text-before-edge">com fitness pior que</text><text x="134.08984375" y="50" font-family="Virgil, Segoe UI Emoji" font-size="20px" fill="#000000" text-anchor="middle" style="white-space: pre;" direction="ltr" dominant-baseline="text-before-edge">a melhor fitness</text></g><g transform="translate(1240.1225357055664 194.4999999999999) rotate(0 127.18985748291016 37.5)"><text x="127.18985748291016" y="0" font-family="Virgil, Segoe UI Emoji" font-size="20px" fill="#000000" text-anchor="middle" style="white-space: pre;" direction="ltr" dominant-baseline="text-before-edge">Se sobra apenas 1</text><text x="127.18985748291016" y="25" font-family="Virgil, Segoe UI Emoji" font-size="20px" fill="#000000" text-anchor="middle" style="white-space: pre;" direction="ltr" dominant-baseline="text-before-edge">indivíduo, ele é adicionado</text><text x="127.18985748291016" y="50" font-family="Virgil, Segoe UI Emoji" font-size="20px" fill="#000000" text-anchor="middle" style="white-space: pre;" direction="ltr" dominant-baseline="text-before-edge">à nova população</text></g><g stroke-linecap="round"><g transform="translate(151.31239318847656 638.4999999999999) rotate(0 698.0977254290694 -68.06988869643169)"><path d="M0.44 0.26 C121.54 5.6, 493.15 60.28, 725.9 31.24 C958.66 2.19, 1285.16 -139.65, 1396.98 -174.01 M-0.78 -0.64 C120.73 4.38, 495.21 58.44, 728.04 29.24 C960.87 0.04, 1284.71 -142, 1396.2 -175.83" stroke="#000000" stroke-width="1" fill="none"></path></g><g transform="translate(151.31239318847656 638.4999999999999) rotate(0 698.0977254290694 -68.06988869643169)"><path d="M29.79 -9.6 C22.65 -5.75, 16.86 -4.08, 0.62 -0.9 M28.64 -8.57 C19.12 -5.95, 11.07 -2.18, -0.03 0.44" stroke="#000000" stroke-width="1" fill="none"></path></g><g transform="translate(151.31239318847656 638.4999999999999) rotate(0 698.0977254290694 -68.06988869643169)"><path d="M28.19 10.86 C21.58 9.72, 16.18 6.41, 0.62 -0.9 M27.04 11.89 C18.04 7.73, 10.53 4.71, -0.03 0.44" stroke="#000000" stroke-width="1" fill="none"></path></g><g transform="translate(151.31239318847656 638.4999999999999) rotate(0 698.0977254290694 -68.06988869643169)"><path d="M1373.58 -158.47 C1379.28 -161.44, 1386.15 -166.41, 1396.37 -177 M1372.43 -157.44 C1380.14 -163.4, 1389.35 -168.67, 1395.72 -175.66" stroke="#000000" stroke-width="1" fill="none"></path></g><g transform="translate(151.31239318847656 638.4999999999999) rotate(0 698.0977254290694 -68.06988869643169)"><path d="M1366.64 -177.79 C1373.9 -176.08, 1382.46 -176.34, 1396.37 -177 M1365.49 -176.76 C1375.52 -176.24, 1387.03 -175.1, 1395.72 -175.66" stroke="#000000" stroke-width="1" fill="none"></path></g></g><mask></mask><g transform="translate(499.7826385498047 629.9999999999999) rotate(0 211.52975463867188 12.5)"><text x="211.52975463867188" y="0" font-family="Virgil, Segoe UI Emoji" font-size="20px" fill="#000000" text-anchor="middle" style="white-space: pre;" direction="ltr" dominant-baseline="text-before-edge">Processo realizado N vezes, com reposição</text></g><g transform="translate(494.3199157714844 10) rotate(0 327.32135009765625 17.499999999999943)"><text x="0" y="0" font-family="Virgil, Segoe UI Emoji" font-size="28px" fill="#000000" text-anchor="start" style="white-space: pre;" direction="ltr" dominant-baseline="text-before-edge">Lexicase - População candidata com 1 indivíduo</text></g><g transform="translate(890.7825469970703 79.49999999999989) rotate(0 124.52984619140625 37.5)"><text x="124.52984619140625" y="0" font-family="Virgil, Segoe UI Emoji" font-size="20px" fill="#000000" text-anchor="middle" style="white-space: pre;" direction="ltr" dominant-baseline="text-before-edge">Esse caso de exemplo é</text><text x="124.52984619140625" y="25" font-family="Virgil, Segoe UI Emoji" font-size="20px" fill="#000000" text-anchor="middle" style="white-space: pre;" direction="ltr" dominant-baseline="text-before-edge">removido do conjunto de</text><text x="124.52984619140625" y="50" font-family="Virgil, Segoe UI Emoji" font-size="20px" fill="#000000" text-anchor="middle" style="white-space: pre;" direction="ltr" dominant-baseline="text-before-edge">exemplos a serem usados</text></g></svg>