<svg version="1.1" xmlns="http://www.w3.org/2000/svg" viewBox="0 0 739.270263671875 331" width="739.270263671875" height="331">
  <!-- svg-source:excalidraw -->
  
  <defs>
    <style class="style-fonts">
      @font-face {
        font-family: "Virgil";
        src: url("https://excalidraw.com/Virgil.woff2");
      }
      @font-face {
        font-family: "Cascadia";
        src: url("https://excalidraw.com/Cascadia.woff2");
      }
    </style>
  </defs>
  <rect x="0" y="0" width="739.270263671875" height="331" fill="#ffffff"></rect><g stroke-linecap="round" transform="translate(10 95) rotate(0 110.5 99.5)"><path d="M32 0 M32 0 C67.27 1.76, 105.17 -0.52, 189 0 M32 0 C86.09 0.26, 141.98 -1.03, 189 0 M189 0 C210.31 0.19, 221.45 10.78, 221 32 M189 0 C209.86 -0.55, 219.64 11.32, 221 32 M221 32 C221.67 70.67, 222.11 112.58, 221 167 M221 32 C221.62 72.52, 221.18 112.3, 221 167 M221 167 C221.05 189.29, 208.65 199.56, 189 199 M221 167 C219.76 187.63, 211.49 197.93, 189 199 M189 199 C133.96 196.69, 76.68 199.23, 32 199 M189 199 C147.9 198.9, 107.94 199.11, 32 199 M32 199 C10.62 199.25, -1.81 187.12, 0 167 M32 199 C12.7 200.55, 1.42 186.48, 0 167 M0 167 C-1.79 130.26, -2.16 90.89, 0 32 M0 167 C-1.8 139.12, -1.89 109.86, 0 32 M0 32 C0.84 12.59, 11.26 0.75, 32 0 M0 32 C0.66 12.88, 8.83 0.05, 32 0" stroke="#000000" stroke-width="1" fill="none"></path></g><g stroke-linecap="round"><g transform="translate(13 131) rotate(0 108.12667464949186 0.11200562380254553)"><path d="M-1.14 -1.03 C35.25 -0.76, 180.86 0.94, 217.39 1.26 M0.46 1.04 C36.81 0.97, 180.42 -0.9, 216.65 -0.73" stroke="#000000" stroke-width="1" fill="none"></path></g></g><mask></mask><g stroke-linecap="round"><g transform="translate(92 96) rotate(0 -0.99476139806211 99.68186360296794)"><path d="M0.15 0.88 C-0.14 34.06, -2.06 166.29, -2.14 199.06 M-1.23 0.3 C-1.13 33.17, -0.1 164.45, -0.03 197.5" stroke="#000000" stroke-width="1" fill="none"></path></g></g><mask></mask><g transform="translate(106 97) rotate(0 48.412193298339844 17.5)"><text x="0" y="0" font-family="Virgil, Segoe UI Emoji" font-size="28px" fill="#000000" text-anchor="start" style="white-space: pre;" direction="ltr" dominant-baseline="text-before-edge">Fitness</text></g><g transform="translate(21.587806701660156 98.5) rotate(0 32.522132873535156 17.5)"><text x="0" y="0" font-family="Virgil, Segoe UI Emoji" font-size="28px" fill="#000000" text-anchor="start" style="white-space: pre;" direction="ltr" dominant-baseline="text-before-edge">Indiv</text></g><g stroke-linecap="round"><g transform="translate(13.873325350507912 168.88799437619747) rotate(0 107.63361452075651 0.22949195982273807)"><path d="M-0.03 -0.91 C36.01 -0.88, 180.79 -0.31, 216.76 0.13 M-1.5 1.22 C34.31 1.39, 179.09 1.46, 215.69 1.22" stroke="#000000" stroke-width="1" fill="none"></path></g></g><mask></mask><g stroke-linecap="round"><g transform="translate(13.873325350507912 209.88799437619747) rotate(0 108.46145738425662 0.30885426610936406)"><path d="M0.6 0.52 C36.66 0.38, 181.39 -0.35, 217.47 -0.09 M-0.55 -0.25 C35.3 -0.35, 180.62 0.78, 216.77 0.87" stroke="#000000" stroke-width="1" fill="none"></path></g></g><mask></mask><g stroke-linecap="round"><g transform="translate(12.873325350507912 250.88799437619747) rotate(0 108.42445048424418 0.9114276918955113)"><path d="M0.46 0.59 C36.68 0.64, 181.64 0.4, 217.61 0.63 M-0.76 -0.15 C35.34 0.05, 180.39 1.92, 216.97 1.98" stroke="#000000" stroke-width="1" fill="none"></path></g></g><mask></mask><g transform="translate(22 134) rotate(0 25.92810821533203 17.5)"><text x="0" y="0" font-family="Virgil, Segoe UI Emoji" font-size="28px" fill="#000000" text-anchor="start" style="white-space: pre;" direction="ltr" dominant-baseline="text-before-edge">Ind1</text></g><g transform="translate(19.07189178466797 174.5) rotate(0 32.102134704589844 17.5)"><text x="0" y="0" font-family="Virgil, Segoe UI Emoji" font-size="28px" fill="#000000" text-anchor="start" style="white-space: pre;" direction="ltr" dominant-baseline="text-before-edge">Ind2</text></g><g transform="translate(21.07189178466797 213.5) rotate(0 31.668136596679688 17.5)"><text x="0" y="0" font-family="Virgil, Segoe UI Emoji" font-size="28px" fill="#000000" text-anchor="start" style="white-space: pre;" direction="ltr" dominant-baseline="text-before-edge">Ind3</text></g><g transform="translate(20.07189178466797 252.5) rotate(0 31.094131469726562 17.5)"><text x="0" y="0" font-family="Virgil, Segoe UI Emoji" font-size="28px" fill="#000000" text-anchor="start" style="white-space: pre;" direction="ltr" dominant-baseline="text-before-edge">Ind4</text></g><g transform="translate(140 135) rotate(0 19.600082397460938 17.5)"><text x="0" y="0" font-family="Virgil, Segoe UI Emoji" font-size="28px" fill="#000000" text-anchor="start" style="white-space: pre;" direction="ltr" dominant-baseline="text-before-edge">20</text></g><g transform="translate(136.39991760253906 173.5) rotate(0 19.16608428955078 17.5)"><text x="0" y="0" font-family="Virgil, Segoe UI Emoji" font-size="28px" fill="#000000" text-anchor="start" style="white-space: pre;" direction="ltr" dominant-baseline="text-before-edge">30</text></g><g transform="translate(145.39991760253906 215.5) rotate(0 13.426055908203125 17.5)"><text x="0" y="0" font-family="Virgil, Segoe UI Emoji" font-size="28px" fill="#000000" text-anchor="start" style="white-space: pre;" direction="ltr" dominant-baseline="text-before-edge">10</text></g><g transform="translate(135.57394409179688 255.5) rotate(0 18.592079162597656 17.5)"><text x="0" y="0" font-family="Virgil, Segoe UI Emoji" font-size="28px" fill="#000000" text-anchor="start" style="white-space: pre;" direction="ltr" dominant-baseline="text-before-edge">40</text></g><g stroke-linecap="round" transform="translate(307 70) rotate(0 126.5 125.5)"><path d="M126.27 0.35 C139.94 -1.63, 156.49 2.49, 170.02 7.19 C183.55 11.88, 196.5 19.34, 207.45 28.53 C218.41 37.73, 228.64 49.82, 235.76 62.36 C242.87 74.91, 247.74 89.83, 250.16 103.79 C252.58 117.75, 252.43 132.24, 250.27 146.13 C248.11 160.03, 244.34 174.47, 237.21 187.14 C230.07 199.81, 218.73 212.96, 207.48 222.17 C196.23 231.38, 182.94 237.45, 169.71 242.42 C156.48 247.39, 142.59 251.75, 128.12 251.98 C113.65 252.21, 96.67 248.73, 82.89 243.78 C69.1 238.82, 56.45 231.4, 45.41 222.24 C34.36 213.09, 23.8 201.16, 16.6 188.84 C9.4 176.52, 4.76 162.49, 2.23 148.31 C-0.3 134.14, -0.93 118.05, 1.42 103.81 C3.77 89.57, 9.06 75.11, 16.33 62.88 C23.61 50.65, 34.16 39.46, 45.06 30.44 C55.96 21.42, 66.55 13.68, 81.76 8.76 C96.96 3.84, 125.6 1.72, 136.29 0.93 C146.99 0.14, 146.05 2.07, 145.93 4.02 M181.52 12.35 C194.77 16.37, 206.84 28.35, 216.76 38.57 C226.68 48.79, 234.84 60.41, 241.04 73.69 C247.24 86.97, 252.69 103.92, 253.96 118.24 C255.24 132.56, 253.01 146.31, 248.7 159.59 C244.39 172.87, 236.55 186.4, 228.08 197.92 C219.6 209.44, 209.47 220.41, 197.87 228.71 C186.26 237, 172.63 243.95, 158.42 247.69 C144.2 251.42, 126.98 252.83, 112.58 251.11 C98.18 249.39, 84.96 243.73, 72.02 237.38 C59.08 231.02, 45.21 223.26, 34.94 212.95 C24.66 202.64, 16.36 188.6, 10.39 175.53 C4.43 162.47, -0.15 148.64, -0.85 134.55 C-1.55 120.46, 1.89 104.81, 6.22 90.98 C10.54 77.16, 16.67 63.32, 25.08 51.62 C33.49 39.92, 44.68 28.94, 56.66 20.77 C68.65 12.6, 83.35 5.73, 97 2.59 C110.66 -0.55, 124.37 0.37, 138.59 1.94 C152.82 3.52, 175.2 9.65, 182.36 12.06 C189.51 14.48, 182.39 14.24, 181.54 16.44" stroke="#000000" stroke-width="1" fill="none"></path></g><g transform="translate(188 10) rotate(0 270.6351318359375 17.5)"><text x="0" y="0" font-family="Virgil, Segoe UI Emoji" font-size="28px" fill="#000000" text-anchor="start" style="white-space: pre;" direction="ltr" dominant-baseline="text-before-edge">Roleta - Distribuição de probabilidades</text></g><g stroke-linecap="round"><g transform="translate(432 196) rotate(0 0.07985415888958869 -60.10500101331622)"><path d="M0.39 -0.79 C0.7 -20.69, 0.95 -99.96, 1.03 -119.67 M-0.87 1.41 C-0.55 -18.85, 0.38 -101.24, 0.62 -121.62" stroke="#000000" stroke-width="1" fill="none"></path></g></g><mask></mask><g stroke-linecap="round"><g transform="translate(430 195) rotate(0 -52.03545464612546 29.29347427295521)"><path d="M-0.01 0.94 C-17.18 10.75, -86.85 48.8, -104.06 58.19 M-1.48 0.39 C-18.2 9.96, -84.78 46.97, -101.9 56.7" stroke="#000000" stroke-width="1" fill="none"></path></g></g><mask></mask><g transform="translate(463.07189178466797 130.5) rotate(0 25.92810821533203 17.5)"><text x="0" y="0" font-family="Virgil, Segoe UI Emoji" font-size="28px" fill="#000000" text-anchor="start" style="white-space: pre;" direction="ltr" dominant-baseline="text-before-edge">Ind1</text></g><g stroke-linecap="round"><g stroke-opacity="0.4" fill-opacity="0.4" transform="translate(431 194) rotate(0 59.677231636522265 14.828326569767682)"><path d="M0.42 0.92 C20.27 5.78, 100.28 24.7, 120.17 29.29 M-0.82 0.36 C18.79 4.83, 99.36 22.46, 119.32 27.32" stroke="#000000" stroke-width="1" fill="none"></path></g></g><mask></mask><g transform="translate(345.3318634033203 137.5) rotate(0 31.668136596679688 17.5)"><text x="0" y="0" font-family="Virgil, Segoe UI Emoji" font-size="28px" fill="#000000" text-anchor="start" style="white-space: pre;" direction="ltr" dominant-baseline="text-before-edge">Ind3</text></g><g stroke-linecap="round"><g transform="translate(431 196) rotate(0 -7.751692238822557 59.59423408793285)"><path d="M0.49 -1.13 C-2 18.62, -13.56 98.7, -16 118.85 M-0.71 0.9 C-2.74 20.8, -11.52 100.82, -13.81 120.31" stroke="#000000" stroke-width="1" fill="none"></path></g></g><mask></mask><g transform="translate(351.90586853027344 241.5) rotate(0 31.094131469726562 17.5)"><text x="0" y="0" font-family="Virgil, Segoe UI Emoji" font-size="28px" fill="#000000" text-anchor="start" style="white-space: pre;" direction="ltr" dominant-baseline="text-before-edge">Ind4</text></g><g transform="translate(443.89786529541016 229.5) rotate(0 32.102134704589844 17.5)"><text x="0" y="0" font-family="Virgil, Segoe UI Emoji" font-size="28px" fill="#000000" text-anchor="start" style="white-space: pre;" direction="ltr" dominant-baseline="text-before-edge">Ind2</text></g></svg>