<svg version="1.1" xmlns="http://www.w3.org/2000/svg" viewBox="0 0 1099.1388718725552 487.44208345649633" width="1099.1388718725552" height="487.44208345649633">
  <!-- svg-source:excalidraw -->
  
  <defs>
    <style class="style-fonts">
      @font-face {
        font-family: "Virgil";
        src: url("https://excalidraw.com/Virgil.woff2");
      }
      @font-face {
        font-family: "Cascadia";
        src: url("https://excalidraw.com/Cascadia.woff2");
      }
    </style>
  </defs>
  <rect x="0" y="0" width="1099.1388718725552" height="487.44208345649633" fill="#ffffff"></rect><g stroke-linecap="round" transform="translate(10 113.46956286896022) rotate(0 110.5 143.5)"><path d="M32 0 M32 0 C67.63 1.4, 101.6 0.32, 189 0 M32 0 C70.48 -1.26, 109.69 0.49, 189 0 M189 0 C209.57 1.16, 222.07 11.78, 221 32 M189 0 C212.47 0.72, 221.73 9.31, 221 32 M221 32 C220.92 111.22, 220.47 192.22, 221 255 M221 32 C220.88 87.51, 220.66 142.85, 221 255 M221 255 C220.82 274.69, 209.36 289, 189 287 M221 255 C223.09 275.75, 208.48 285.89, 189 287 M189 287 C150.2 285.31, 115.86 286.31, 32 287 M189 287 C131.61 285.86, 75.08 286.59, 32 287 M32 287 C12.03 288.52, -0.31 276.69, 0 255 M32 287 C9.95 286.57, 1.67 276.2, 0 255 M0 255 C0.93 188.81, 0.82 124.78, 0 32 M0 255 C-0.51 167.29, -0.54 79.89, 0 32 M0 32 C1.97 9.5, 9.14 -0.43, 32 0 M0 32 C2.06 8.38, 12.38 0.48, 32 0" stroke="#000000" stroke-width="1" fill="none"></path></g><g stroke-linecap="round"><g transform="translate(13 149.46956286896022) rotate(0 108.6730317536369 0.7957798066362898)"><path d="M0.03 0.67 C36.26 0.6, 180.34 0.29, 216.38 0.39 M-1.42 -0.02 C35.3 -0.01, 182.07 1.14, 218.77 1.61" stroke="#000000" stroke-width="1" fill="none"></path></g></g><mask></mask><g stroke-linecap="round"><g transform="translate(92 114.46956286896022) rotate(0 -0.7484345786459699 138.84704748131338)"><path d="M-0.62 -0.61 C-1.08 45.66, -2.39 232.04, -2.75 278.3 M1.25 1.69 C1.18 47.52, -0.17 230.33, -0.43 276.34" stroke="#000000" stroke-width="1" fill="none"></path></g></g><mask></mask><g transform="translate(106 115.46956286896022) rotate(0 48.412193298339844 17.5)"><text x="0" y="0" font-family="Virgil, Segoe UI Emoji" font-size="28px" fill="#000000" text-anchor="start" style="white-space: pre;" direction="ltr" dominant-baseline="text-before-edge">Fitness</text></g><g transform="translate(21.587806701660156 116.96956286896022) rotate(0 32.522132873535156 17.5)"><text x="0" y="0" font-family="Virgil, Segoe UI Emoji" font-size="28px" fill="#000000" text-anchor="start" style="white-space: pre;" direction="ltr" dominant-baseline="text-before-edge">Indiv</text></g><g stroke-linecap="round"><g transform="translate(13.873325350507912 187.35755724515775) rotate(0 107.9227523531764 0.8167019805498512)"><path d="M-0.7 1.06 C35.52 1.52, 180.15 1.59, 216.54 1.7 M1.14 0.57 C37.23 0.78, 179.34 0.09, 215.36 -0.06" stroke="#000000" stroke-width="1" fill="none"></path></g></g><mask></mask><g stroke-linecap="round"><g transform="translate(13.873325350507912 228.35755724515775) rotate(0 108.59440620802343 0.7829437054880373)"><path d="M-0.46 0.7 C35.93 0.8, 181.22 1.56, 217.64 1.67 M1.51 0.01 C37.86 0.29, 180.96 0.03, 217.04 -0.1" stroke="#000000" stroke-width="1" fill="none"></path></g></g><mask></mask><g stroke-linecap="round"><g transform="translate(12.873325350507912 269.35755724515775) rotate(0 108.81995102016253 0.3881626303757457)"><path d="M0.64 0.67 C37.07 0.78, 181.99 1.44, 218.12 1.38 M-0.48 -0.03 C35.93 -0.35, 181.54 -0.76, 217.75 -0.55" stroke="#000000" stroke-width="1" fill="none"></path></g></g><mask></mask><g transform="translate(22 152.46956286896022) rotate(0 25.92810821533203 17.5)"><text x="0" y="0" font-family="Virgil, Segoe UI Emoji" font-size="28px" fill="#000000" text-anchor="start" style="white-space: pre;" direction="ltr" dominant-baseline="text-before-edge">Ind1</text></g><g transform="translate(19.07189178466797 192.96956286896022) rotate(0 32.102134704589844 17.5)"><text x="0" y="0" font-family="Virgil, Segoe UI Emoji" font-size="28px" fill="#000000" text-anchor="start" style="white-space: pre;" direction="ltr" dominant-baseline="text-before-edge">Ind2</text></g><g transform="translate(21.07189178466797 231.96956286896022) rotate(0 31.668136596679688 17.5)"><text x="0" y="0" font-family="Virgil, Segoe UI Emoji" font-size="28px" fill="#000000" text-anchor="start" style="white-space: pre;" direction="ltr" dominant-baseline="text-before-edge">Ind3</text></g><g transform="translate(20.07189178466797 270.9695628689602) rotate(0 31.094131469726562 17.5)"><text x="0" y="0" font-family="Virgil, Segoe UI Emoji" font-size="28px" fill="#000000" text-anchor="start" style="white-space: pre;" direction="ltr" dominant-baseline="text-before-edge">Ind4</text></g><g transform="translate(140 153.46956286896022) rotate(0 19.600082397460938 17.5)"><text x="0" y="0" font-family="Virgil, Segoe UI Emoji" font-size="28px" fill="#000000" text-anchor="start" style="white-space: pre;" direction="ltr" dominant-baseline="text-before-edge">20</text></g><g transform="translate(136.39991760253906 191.96956286896022) rotate(0 19.16608428955078 17.5)"><text x="0" y="0" font-family="Virgil, Segoe UI Emoji" font-size="28px" fill="#000000" text-anchor="start" style="white-space: pre;" direction="ltr" dominant-baseline="text-before-edge">30</text></g><g transform="translate(145.39991760253906 233.96956286896022) rotate(0 13.426055908203125 17.5)"><text x="0" y="0" font-family="Virgil, Segoe UI Emoji" font-size="28px" fill="#000000" text-anchor="start" style="white-space: pre;" direction="ltr" dominant-baseline="text-before-edge">10</text></g><g transform="translate(135.57394409179688 273.9695628689602) rotate(0 18.592079162597656 17.5)"><text x="0" y="0" font-family="Virgil, Segoe UI Emoji" font-size="28px" fill="#000000" text-anchor="start" style="white-space: pre;" direction="ltr" dominant-baseline="text-before-edge">40</text></g><g stroke-linecap="round"><g transform="translate(10.850903086382914 312.11183736962414) rotate(0 108.6721686575562 0.8259311844436183)"><path d="M-0.8 -0.75 C35.51 -0.6, 181.69 0.49, 218.14 0.86 M0.98 1.47 C37.21 1.82, 181.68 2.67, 217.8 2.32" stroke="#000000" stroke-width="1" fill="none"></path></g></g><mask></mask><g stroke-linecap="round"><g transform="translate(11.998685448989363 356.6740688155562) rotate(0 108.4873714018147 0.6307046717573712)"><path d="M0.69 -0.79 C36.79 -0.88, 181.32 0.41, 217.39 0.69 M-0.41 1.4 C35.51 2, 180.5 1.94, 216.64 2.06" stroke="#000000" stroke-width="1" fill="none"></path></g></g><mask></mask><g transform="translate(18.576722636818886 360.0000000000001) rotate(0 31.150131225585938 17.5)"><text x="0" y="0" font-family="Virgil, Segoe UI Emoji" font-size="28px" fill="#000000" text-anchor="start" style="white-space: pre;" direction="ltr" dominant-baseline="text-before-edge">IndN</text></g><g transform="translate(144.0787749439478 360.0000000000001) rotate(0 8.65203857421875 17.5)"><text x="0" y="0" font-family="Virgil, Segoe UI Emoji" font-size="28px" fill="#000000" text-anchor="start" style="white-space: pre;" direction="ltr" dominant-baseline="text-before-edge">5</text></g><g transform="translate(41.0188155323267 315.0000000000001) rotate(0 11.508041381835938 17.5)"><text x="0" y="0" font-family="Virgil, Segoe UI Emoji" font-size="28px" fill="#000000" text-anchor="start" style="white-space: pre;" direction="ltr" dominant-baseline="text-before-edge">...</text></g><g transform="translate(145.1628127247095 316.0000000000001) rotate(0 11.508041381835938 17.5)"><text x="0" y="0" font-family="Virgil, Segoe UI Emoji" font-size="28px" fill="#000000" text-anchor="start" style="white-space: pre;" direction="ltr" dominant-baseline="text-before-edge">...</text></g><g transform="translate(453.03572227060795 10) rotate(0 110.99247741699219 17.5)"><text x="0" y="0" font-family="Virgil, Segoe UI Emoji" font-size="28px" fill="#000000" text-anchor="start" style="white-space: pre;" direction="ltr" dominant-baseline="text-before-edge">Torneio - K = 2</text></g><g transform="translate(27.67837668955326 74) rotate(0 95.31239318847656 17.5)"><text x="0" y="0" font-family="Virgil, Segoe UI Emoji" font-size="28px" fill="#000000" text-anchor="start" style="white-space: pre;" direction="ltr" dominant-baseline="text-before-edge">População pai</text></g><g stroke-linecap="round" transform="translate(454.78809106959034 187) rotate(0 110.5 60.49999999999994)"><path d="M30.25 0 M30.25 0 C71.65 -2.72, 108.15 -1.24, 190.75 0 M30.25 0 C81.26 0.77, 129.35 0.78, 190.75 0 M190.75 0 C210.21 -0.68, 221.07 10.47, 221 30.25 M190.75 0 C209.2 -1.92, 218.77 11.19, 221 30.25 M221 30.25 C223.09 47.29, 222.97 61.21, 221 90.75 M221 30.25 C220.21 53.67, 220.63 78.49, 221 90.75 M221 90.75 C221.9 112.13, 212.09 120.97, 190.75 121 M221 90.75 C223.13 109.85, 212.3 119.61, 190.75 121 M190.75 121 C136.39 123.27, 83.36 119.86, 30.25 121 M190.75 121 C143.11 118.56, 96.19 119, 30.25 121 M30.25 121 C9.74 120.96, 0.1 110.44, 0 90.75 M30.25 121 C9.17 121.53, 1.59 112.3, 0 90.75 M0 90.75 C-1.44 79.58, -1.09 66.2, 0 30.25 M0 90.75 C-0.05 76.8, 0.44 61.64, 0 30.25 M0 30.25 C-0.83 8.78, 9.45 -1.73, 30.25 0 M0 30.25 C-1.78 8.25, 10.39 -0.74, 30.25 0" stroke="#000000" stroke-width="1" fill="none"></path></g><g stroke-linecap="round"><g transform="translate(457.78809106959034 223.0000000000001) rotate(0 107.96898872591555 0.8608738692844895)"><path d="M-0.97 -1.03 C35.04 -1, 180.57 0.97, 216.91 1.14 M0.71 1.04 C36.49 1.21, 179.97 2.8, 215.92 2.75" stroke="#000000" stroke-width="1" fill="none"></path></g></g><mask></mask><g stroke-linecap="round"><g transform="translate(536.7880910695903 188) rotate(0 -1.4486669591251484 60.06649058194836)"><path d="M-0.09 0.14 C-0.24 20.31, -1.78 99.95, -1.9 119.97 M-1.59 -0.83 C-1.81 19.54, -2.91 100.63, -2.8 120.96" stroke="#000000" stroke-width="1" fill="none"></path></g></g><mask></mask><g transform="translate(550.7880910695903 189) rotate(0 48.412193298339844 17.5)"><text x="0" y="0" font-family="Virgil, Segoe UI Emoji" font-size="28px" fill="#000000" text-anchor="start" style="white-space: pre;" direction="ltr" dominant-baseline="text-before-edge">Fitness</text></g><g transform="translate(466.3758977712505 190.5) rotate(0 32.522132873535156 17.5)"><text x="0" y="0" font-family="Virgil, Segoe UI Emoji" font-size="28px" fill="#000000" text-anchor="start" style="white-space: pre;" direction="ltr" dominant-baseline="text-before-edge">Indiv</text></g><g stroke-linecap="round"><g transform="translate(458.66141642009825 260.8879943761975) rotate(0 107.71728236414492 0.5984698465186966)"><path d="M-1.14 -0.72 C34.76 -0.5, 180.21 0.27, 216.58 0.59 M0.46 1.52 C36.06 1.97, 179.43 1.72, 215.41 1.91" stroke="#000000" stroke-width="1" fill="none"></path></g></g><mask></mask><g transform="translate(462.8599828542583 227.5000000000001) rotate(0 32.102134704589844 17.5)"><text x="0" y="0" font-family="Virgil, Segoe UI Emoji" font-size="28px" fill="#000000" text-anchor="start" style="white-space: pre;" direction="ltr" dominant-baseline="text-before-edge">Ind2</text></g><g transform="translate(584.1880086721294 225.5000000000001) rotate(0 19.16608428955078 17.5)"><text x="0" y="0" font-family="Virgil, Segoe UI Emoji" font-size="28px" fill="#000000" text-anchor="start" style="white-space: pre;" direction="ltr" dominant-baseline="text-before-edge">30</text></g><g transform="translate(464.3648137064092 267.53043713104) rotate(0 31.150131225585938 17.5)"><text x="0" y="0" font-family="Virgil, Segoe UI Emoji" font-size="28px" fill="#000000" text-anchor="start" style="white-space: pre;" direction="ltr" dominant-baseline="text-before-edge">IndN</text></g><g transform="translate(589.8668660135381 267.53043713104) rotate(0 8.65203857421875 17.5)"><text x="0" y="0" font-family="Virgil, Segoe UI Emoji" font-size="28px" fill="#000000" text-anchor="start" style="white-space: pre;" direction="ltr" dominant-baseline="text-before-edge">5</text></g><g stroke-linecap="round"><g transform="translate(238.67085410654545 248.18131987173626) rotate(0 101.09840931775977 -0.1880664716398428)"><path d="M0.14 0.9 C34.04 0.53, 169.47 -1.2, 203.45 -1.27 M-1.25 0.32 C32.44 -0.01, 168.12 0.04, 202.21 -0.27" stroke="#000000" stroke-width="1" fill="none"></path></g><g transform="translate(238.67085410654545 248.18131987173626) rotate(0 101.09840931775977 -0.1880664716398428)"><path d="M175.55 9.18 C180.88 6.92, 192.36 2.16, 200.45 1.22 M173.23 10.25 C184.68 5.88, 194.96 3.57, 201.32 0.61" stroke="#000000" stroke-width="1" fill="none"></path></g><g transform="translate(238.67085410654545 248.18131987173626) rotate(0 101.09840931775977 -0.1880664716398428)"><path d="M175.47 -11.34 C180.98 -7.34, 192.49 -5.84, 200.45 1.22 M173.15 -10.27 C184.43 -6.95, 194.74 -1.57, 201.32 0.61" stroke="#000000" stroke-width="1" fill="none"></path></g></g><mask></mask><g transform="translate(240.67085410654545 182.5) rotate(0 106.30988311767578 25)"><text x="106.30988311767578" y="0" font-family="Virgil, Segoe UI Emoji" font-size="20px" fill="#000000" text-anchor="middle" style="white-space: pre;" direction="ltr" dominant-baseline="text-before-edge">Seleciona 2 indivíduos</text><text x="106.30988311767578" y="25" font-family="Virgil, Segoe UI Emoji" font-size="20px" fill="#000000" text-anchor="middle" style="white-space: pre;" direction="ltr" dominant-baseline="text-before-edge">aleatoriamente</text></g><g stroke-linecap="round" transform="translate(867.7880910695903 128.73478143448006) rotate(0 110.5 143.49999999999994)"><path d="M32 0 M32 0 C78.93 1.19, 130.4 0.63, 189 0 M32 0 C91.47 1.26, 150.33 0.37, 189 0 M189 0 C211.13 0.09, 220.2 8.78, 221 32 M189 0 C210.8 -1.56, 220 9.96, 221 32 M221 32 C221.48 93.67, 223.38 155.01, 221 255 M221 32 C221.63 86.69, 220.49 139.92, 221 255 M221 255 C221.81 277.8, 211.09 287.27, 189 287 M221 255 C218.98 274.92, 209.04 287.09, 189 287 M189 287 C129.25 287.19, 69.72 285.7, 32 287 M189 287 C134.32 288.18, 80.9 287.11, 32 287 M32 287 C9.33 286.03, -1.77 274.54, 0 255 M32 287 C11.01 287.19, -1.56 277.58, 0 255 M0 255 C-0.93 206.16, -1.9 157.94, 0 32 M0 255 C-1.66 197.86, -1.81 142.6, 0 32 M0 32 C-0.67 11.14, 9.75 1.19, 32 0 M0 32 C1.09 10.88, 8.57 0.51, 32 0" stroke="#000000" stroke-width="1" fill="none"></path></g><g stroke-linecap="round"><g transform="translate(870.7880910695903 164.73478143448006) rotate(0 108.07592559578825 0.714434296311822)"><path d="M0.38 0.34 C36.62 0.86, 180.93 1.95, 217.04 1.96 M-0.89 -0.53 C35.24 -0.22, 179.91 0.02, 216.11 0.34" stroke="#000000" stroke-width="1" fill="none"></path></g></g><mask></mask><g stroke-linecap="round"><g transform="translate(949.7880910695903 129.73478143448006) rotate(0 -1.4204990128894224 139.51113304795695)"><path d="M0.04 0.96 C-0.35 47.13, -1.58 231.12, -1.96 277.39 M-1.4 0.42 C-1.98 46.71, -2.6 232.59, -2.88 278.61" stroke="#000000" stroke-width="1" fill="none"></path></g></g><mask></mask><g transform="translate(963.7880910695903 130.73478143448006) rotate(0 48.412193298339844 17.5)"><text x="0" y="0" font-family="Virgil, Segoe UI Emoji" font-size="28px" fill="#000000" text-anchor="start" style="white-space: pre;" direction="ltr" dominant-baseline="text-before-edge">Fitness</text></g><g transform="translate(879.3758977712505 132.23478143448006) rotate(0 32.522132873535156 17.5)"><text x="0" y="0" font-family="Virgil, Segoe UI Emoji" font-size="28px" fill="#000000" text-anchor="start" style="white-space: pre;" direction="ltr" dominant-baseline="text-before-edge">Indiv</text></g><g stroke-linecap="round"><g transform="translate(871.6614164200982 202.6227758106777) rotate(0 108.15981577374032 1.0672394281464221)"><path d="M-1.16 -0.52 C35.12 -0.43, 181.2 0.99, 217.48 1.05 M0.44 1.82 C36.62 2.07, 180.94 2.82, 216.78 2.62" stroke="#000000" stroke-width="1" fill="none"></path></g></g><mask></mask><g stroke-linecap="round"><g transform="translate(871.6614164200982 243.6227758106777) rotate(0 107.89353898274726 -0.0785806721262361)"><path d="M0.48 0.05 C36.76 0.12, 180.39 -0.16, 216.52 -0.13 M-0.73 -0.97 C35.45 -0.75, 179.09 0.47, 215.32 0.81" stroke="#000000" stroke-width="1" fill="none"></path></g></g><mask></mask><g stroke-linecap="round"><g transform="translate(870.6614164200982 284.6227758106777) rotate(0 108.38147388435902 0.08069674712606911)"><path d="M-0.48 -1.13 C35.65 -1.11, 181.08 -0.11, 217.24 0.19 M1.47 0.89 C37.42 1.04, 180.76 1.15, 216.43 1.29" stroke="#000000" stroke-width="1" fill="none"></path></g></g><mask></mask><g transform="translate(879.7880910695903 167.73478143448006) rotate(0 31.150131225585938 17.5)"><text x="0" y="0" font-family="Virgil, Segoe UI Emoji" font-size="28px" fill="#000000" text-anchor="start" style="white-space: pre;" direction="ltr" dominant-baseline="text-before-edge">IndN</text></g><g transform="translate(1007.7880910695903 167.73478143448006) rotate(0 8.65203857421875 17.5)"><text x="0" y="0" font-family="Virgil, Segoe UI Emoji" font-size="28px" fill="#000000" text-anchor="start" style="white-space: pre;" direction="ltr" dominant-baseline="text-before-edge">5</text></g><g stroke-linecap="round"><g transform="translate(868.6389941559733 327.37705593514397) rotate(0 108.24803538061678 0.6850310417730725)"><path d="M-0.99 0.35 C35.16 0.46, 181.08 1.75, 217.49 1.88 M0.69 -0.51 C36.67 -0.22, 180.76 -0.29, 216.79 0.22" stroke="#000000" stroke-width="1" fill="none"></path></g></g><mask></mask><g stroke-linecap="round"><g transform="translate(869.7867765185797 371.93928738107616) rotate(0 108.36787079337046 1.5427516749687697)"><path d="M0.49 0.88 C36.89 1.02, 181.54 1.27, 217.45 1.16 M-0.72 0.3 C35.66 0.62, 180.24 2.64, 216.74 2.79" stroke="#000000" stroke-width="1" fill="none"></path></g></g><mask></mask><g transform="translate(898.806906601917 330.26521856551994) rotate(0 11.508041381835938 17.5)"><text x="0" y="0" font-family="Virgil, Segoe UI Emoji" font-size="28px" fill="#000000" text-anchor="start" style="white-space: pre;" direction="ltr" dominant-baseline="text-before-edge">...</text></g><g transform="translate(1002.9509037942998 331.26521856551994) rotate(0 11.508041381835938 17.5)"><text x="0" y="0" font-family="Virgil, Segoe UI Emoji" font-size="28px" fill="#000000" text-anchor="start" style="white-space: pre;" direction="ltr" dominant-baseline="text-before-edge">...</text></g><g transform="translate(867.4664677591436 83.26521856551994) rotate(0 107.0864486694336 17.5)"><text x="0" y="0" font-family="Virgil, Segoe UI Emoji" font-size="28px" fill="#000000" text-anchor="start" style="white-space: pre;" direction="ltr" dominant-baseline="text-before-edge">Nova população</text></g><g stroke-linecap="round"><g transform="translate(686.6708541065457 247.49391553169153) rotate(0 85.40813494659949 -0.24306025857185887)"><path d="M-0.82 0.4 C27.91 0.29, 142.98 -0.68, 171.64 -0.89 M0.94 -0.43 C29.55 -0.41, 141.74 0.05, 170.5 0.1" stroke="#000000" stroke-width="1" fill="none"></path></g><g transform="translate(686.6708541065457 247.49391553169153) rotate(0 85.40813494659949 -0.24306025857185887)"><path d="M142.95 9.68 C147.27 6.57, 153.99 4.69, 172.29 1.62 M141.5 9.68 C147.87 7.33, 154.69 5.31, 169.76 -0.46" stroke="#000000" stroke-width="1" fill="none"></path></g><g transform="translate(686.6708541065457 247.49391553169153) rotate(0 85.40813494659949 -0.24306025857185887)"><path d="M143.01 -10.84 C147.28 -9.08, 153.99 -6.09, 172.29 1.62 M141.56 -10.84 C148.1 -8.86, 154.9 -6.55, 169.76 -0.46" stroke="#000000" stroke-width="1" fill="none"></path></g></g><mask></mask><g transform="translate(654.2309661060572 149.5) rotate(0 105.43988800048828 37.5)"><text x="105.43988800048828" y="0" font-family="Virgil, Segoe UI Emoji" font-size="20px" fill="#000000" text-anchor="middle" style="white-space: pre;" direction="ltr" dominant-baseline="text-before-edge">Adiciona indivíduo com</text><text x="105.43988800048828" y="25" font-family="Virgil, Segoe UI Emoji" font-size="20px" fill="#000000" text-anchor="middle" style="white-space: pre;" direction="ltr" dominant-baseline="text-before-edge">melhor fitness na</text><text x="105.43988800048828" y="50" font-family="Virgil, Segoe UI Emoji" font-size="20px" fill="#000000" text-anchor="middle" style="white-space: pre;" direction="ltr" dominant-baseline="text-before-edge">nova população</text></g><g stroke-linecap="round"><g transform="translate(106.67085410654545 414.5) rotate(0 445.6605510619097 31.655929243563833)"><path d="M0.89 0.93 C76.7 11.12, 307.33 59.1, 455.35 61.56 C603.38 64.02, 816.79 23.39, 889.03 15.69 M-0.1 0.37 C75.54 10.7, 306 60.64, 454.59 62.86 C603.18 65.08, 819.11 21.42, 891.42 13.71" stroke="#000000" stroke-width="1" fill="none"></path></g><g transform="translate(106.67085410654545 414.5) rotate(0 445.6605510619097 31.655929243563833)"><path d="M31.89 -4.21 C19.61 -4.24, 11.48 -2.63, 1.46 2.36 M30.89 -3.92 C18.97 -2.72, 7.25 -0.94, 0.83 0.32" stroke="#000000" stroke-width="1" fill="none"></path></g><g transform="translate(106.67085410654545 414.5) rotate(0 445.6605510619097 31.655929243563833)"><path d="M28.68 16.06 C17.42 9.11, 10.39 3.83, 1.46 2.36 M27.67 16.35 C17.16 9.44, 6.72 3.13, 0.83 0.32" stroke="#000000" stroke-width="1" fill="none"></path></g><g transform="translate(106.67085410654545 414.5) rotate(0 445.6605510619097 31.655929243563833)"><path d="M866.57 28.55 C873.21 21.31, 884.08 16.13, 891.99 15.14 M865.57 28.84 C876.08 21.98, 886.68 15.78, 891.36 13.1" stroke="#000000" stroke-width="1" fill="none"></path></g><g transform="translate(106.67085410654545 414.5) rotate(0 445.6605510619097 31.655929243563833)"><path d="M863.58 8.25 C871.31 7.89, 883.19 9.61, 891.99 15.14 M862.58 8.53 C874.18 9.79, 885.97 11.7, 891.36 13.1" stroke="#000000" stroke-width="1" fill="none"></path></g></g><mask></mask><g transform="translate(347.1410994678736 426.5) rotate(0 211.52975463867188 12.5)"><text x="211.52975463867188" y="0" font-family="Virgil, Segoe UI Emoji" font-size="20px" fill="#000000" text-anchor="middle" style="white-space: pre;" direction="ltr" dominant-baseline="text-before-edge">Processo realizado N vezes, com reposição</text></g></svg>